<?xml version="1.0" encoding="UTF-8"?>
<svg version="1.1" xmlns="http://www.w3.org/2000/svg" width="426" height="216">
<path d="M0 0 C140.58 0 281.16 0 426 0 C426 71.28 426 142.56 426 216 C285.42 216 144.84 216 0 216 C0 144.72 0 73.44 0 0 Z " fill="#1E4D71" transform="translate(0,0)"/>
<path d="M0 0 C9.44714619 1.09005533 9.44714619 1.09005533 12.8515625 5.27734375 C13.72941406 6.59412109 13.72941406 6.59412109 14.625 7.9375 C15.21539062 8.81277344 15.80578125 9.68804687 16.4140625 10.58984375 C16.93742188 11.38519531 17.46078125 12.18054688 18 13 C18.99 14.485 18.99 14.485 20 16 C20.78310547 15.45859375 20.78310547 15.45859375 21.58203125 14.90625 C27.67899029 11.06228283 32.82741719 9.92693643 40 11 C42.32421875 12.02734375 42.32421875 12.02734375 44 13 C43.48381757 20.48464527 41.67497304 24.44133014 36.125 29.75 C30.18870325 34.02413366 25.07000688 34.28280028 18 34 C17.814375 34.78375 17.62875 35.5675 17.4375 36.375 C15.74841255 40.63443792 13.38337073 43.87781002 10.65625 47.53515625 C9.0219954 49.96726628 8.07374659 52.28856428 7 55 C5.37660195 56.70884005 3.70680947 58.37446717 2 60 C1.401875 60.78375 0.80375 61.5675 0.1875 62.375 C-2.25015609 65.30018731 -4.90558651 67.64765673 -7.80078125 70.109375 C-9.28182077 71.38259547 -10.73758205 72.68575196 -12.16796875 74.015625 C-24.50741052 85.45963825 -40.7254849 94.69735258 -57.85546875 94.21875 C-67.0659506 93.57802083 -73.67488114 91.00073494 -80.5 84.6875 C-82.60550747 80.91513245 -82.29013552 78.27949896 -82 74 C-82.66 74 -83.32 74 -84 74 C-84.44472656 73.51015625 -84.88945312 73.0203125 -85.34765625 72.515625 C-87.49926661 70.54204387 -88.55693789 70.65540026 -91.4375 70.75 C-92.3346875 70.77578125 -93.231875 70.8015625 -94.15625 70.828125 C-96.92497298 70.9954654 -99.67642968 71.23630227 -102.4375 71.5 C-104.62424433 71.67630448 -106.81189481 71.84147646 -109 72 C-109.75651855 72.06348633 -110.51303711 72.12697266 -111.29248047 72.19238281 C-125.92378432 73.31366568 -125.92378432 73.31366568 -130.33984375 70.51953125 C-132.06170305 68.08517844 -132.99199923 65.80906097 -134 63 C-134.53625 61.81664062 -135.0725 60.63328125 -135.625 59.4140625 C-138.10502402 53.81678113 -140.02797192 48.87096995 -140.57495117 42.75366211 C-140.6569426 41.86110214 -140.73893402 40.96854218 -140.82341003 40.04893494 C-140.88168472 39.37278641 -140.93995941 38.69663788 -141 38 C-140.32800347 37.99668985 -139.65600695 37.99337971 -138.96364689 37.98996925 C-122.58712874 37.90863009 -106.21071007 37.81650216 -89.83432102 37.71247292 C-81.91471333 37.66242267 -73.9951156 37.61597909 -66.07543945 37.578125 C-59.16995299 37.54510922 -52.26454558 37.50522555 -45.35914654 37.45720994 C-41.70524554 37.4320399 -38.05139633 37.41023102 -34.39743233 37.39665604 C-30.31114536 37.38134591 -26.22510757 37.35069806 -22.13891602 37.31884766 C-20.93697601 37.31668747 -19.73503601 37.31452728 -18.49667358 37.31230164 C-6.37566215 37.42337107 -6.37566215 37.42337107 4 32 C3.59314002 28.4576205 3.59314002 28.4576205 1.625 25.625 C-2.41207869 21.58792131 -3.21806278 16.93030254 -3.375 11.4375 C-3.26391666 6.95713845 -2.48212904 3.8266156 0 0 Z " fill="#1C93C0" transform="translate(277,96)"/>
<path d="M0 0 C1.90072266 0.02126953 1.90072266 0.02126953 3.83984375 0.04296875 C5.74443359 0.05263672 5.74443359 0.05263672 7.6875 0.0625 C10.77734375 0.23046875 10.77734375 0.23046875 11.77734375 1.23046875 C11.84939886 2.91655841 11.86120443 4.60547534 11.83984375 6.29296875 C11.83082031 7.21207031 11.82179688 8.13117188 11.8125 9.078125 C11.80089844 9.78839844 11.78929687 10.49867187 11.77734375 11.23046875 C12.40302246 11.22523193 13.02870117 11.21999512 13.67333984 11.21459961 C16.49966432 11.19385257 19.3259728 11.18081589 22.15234375 11.16796875 C23.62960938 11.15540039 23.62960938 11.15540039 25.13671875 11.14257812 C26.54824219 11.13774414 26.54824219 11.13774414 27.98828125 11.1328125 C29.29224854 11.12495728 29.29224854 11.12495728 30.62255859 11.11694336 C32.77734375 11.23046875 32.77734375 11.23046875 34.77734375 12.23046875 C34.77734375 18.17046875 34.77734375 24.11046875 34.77734375 30.23046875 C41.04734375 30.23046875 47.31734375 30.23046875 53.77734375 30.23046875 C54.71547104 35.8592325 54.52547644 39.74416238 53.77734375 45.23046875 C56.69431386 45.08942184 59.61082395 44.94282061 62.52734375 44.79296875 C63.35234375 44.75365234 64.17734375 44.71433594 65.02734375 44.67382812 C65.8265625 44.63193359 66.62578125 44.59003906 67.44921875 44.546875 C68.18237305 44.51021729 68.91552734 44.47355957 69.67089844 44.43579102 C71.81899107 44.22640925 73.73086887 43.92164194 75.77734375 43.23046875 C76.10734375 42.57046875 76.43734375 41.91046875 76.77734375 41.23046875 C76.11734375 41.23046875 75.45734375 41.23046875 74.77734375 41.23046875 C71.31143286 38.51801675 69.14111334 34.59076149 68.47143555 30.24560547 C68.33948007 28.06619547 68.31874151 25.91359191 68.33984375 23.73046875 C68.31986328 22.99699219 68.29988281 22.26351562 68.27929688 21.5078125 C68.28485308 15.29598027 70.3478272 11.6599853 74.77734375 7.23046875 C78.18905635 7.60130708 81.4663617 8.33905051 84.77734375 9.23046875 C84.77734375 9.89046875 84.77734375 10.55046875 84.77734375 11.23046875 C85.68484375 11.45734375 86.59234375 11.68421875 87.52734375 11.91796875 C91.81545845 13.64970738 93.73724161 16.15026448 95.77734375 20.23046875 C97.5871875 20.10478516 97.5871875 20.10478516 99.43359375 19.9765625 C101.04815206 19.87330586 102.66273689 19.77046339 104.27734375 19.66796875 C105.06882812 19.61189453 105.8603125 19.55582031 106.67578125 19.49804688 C111.86999785 19.17873028 116.64864512 19.2830211 121.77734375 20.23046875 C123.77734375 22.23046875 123.77734375 22.23046875 124.04296875 24.40234375 C124.01263337 29.40768203 123.75261219 33.53920621 121.77734375 38.23046875 C121.11734375 38.23046875 120.45734375 38.23046875 119.77734375 38.23046875 C119.59171875 38.95234375 119.40609375 39.67421875 119.21484375 40.41796875 C117.24121784 44.27941075 114.43570692 46.03082001 110.77734375 48.23046875 C110.16117188 48.60558594 109.545 48.98070312 108.91015625 49.3671875 C106.17541465 50.47410672 103.96679016 50.42545557 101.02734375 50.35546875 C99.55007813 50.32839844 99.55007813 50.32839844 98.04296875 50.30078125 C97.2953125 50.27757812 96.54765625 50.254375 95.77734375 50.23046875 C95.11734375 52.87046875 94.45734375 55.51046875 93.77734375 58.23046875 C93.11734375 58.23046875 92.45734375 58.23046875 91.77734375 58.23046875 C91.59171875 59.24109375 91.40609375 60.25171875 91.21484375 61.29296875 C90.04383806 65.45003896 87.70987858 67.586593 84.58984375 70.453125 C82.76585182 72.24173777 81.39298229 74.05551383 79.96484375 76.16796875 C79.24296875 77.17859375 78.52109375 78.18921875 77.77734375 79.23046875 C77.11734375 79.23046875 76.45734375 79.23046875 75.77734375 79.23046875 C75.77734375 79.89046875 75.77734375 80.55046875 75.77734375 81.23046875 C75.11734375 81.23046875 74.45734375 81.23046875 73.77734375 81.23046875 C73.77734375 81.89046875 73.77734375 82.55046875 73.77734375 83.23046875 C69.30675551 87.23046875 69.30675551 87.23046875 66.77734375 87.23046875 C66.73609375 87.82859375 66.69484375 88.42671875 66.65234375 89.04296875 C65.33364997 92.33970321 62.92983498 92.74344458 59.77734375 94.23046875 C58.80796875 95.07609375 57.83859375 95.92171875 56.83984375 96.79296875 C53.34575491 99.57397824 51.06646477 100.28686213 46.77734375 101.23046875 C46.77734375 101.89046875 46.77734375 102.55046875 46.77734375 103.23046875 C26.443358 112.98330029 3.04940073 117.56553352 -19.22265625 111.23046875 C-22.82421875 109.72265625 -22.82421875 109.72265625 -25.84765625 108.10546875 C-26.87117188 107.56664062 -27.8946875 107.0278125 -28.94921875 106.47265625 C-29.69945312 106.06273437 -30.4496875 105.6528125 -31.22265625 105.23046875 C-28.62558291 103.93193208 -28.01416913 104.4958601 -25.22265625 105.23046875 C-23.26068754 105.4593651 -21.29864594 105.68769204 -19.3359375 105.91015625 C-17.22265625 106.23046875 -17.22265625 106.23046875 -13.66015625 107.29296875 C-7.40412114 108.99229418 -0.6545358 108.38121593 5.77734375 108.23046875 C4.90722656 107.81087891 4.90722656 107.81087891 4.01953125 107.3828125 C-5.67249952 102.40884951 -8.63783505 97.98493234 -12.22265625 87.23046875 C-24.10265625 87.23046875 -35.98265625 87.23046875 -48.22265625 87.23046875 C-48.22265625 87.89046875 -48.22265625 88.55046875 -48.22265625 89.23046875 C-47.56265625 89.23046875 -46.90265625 89.23046875 -46.22265625 89.23046875 C-45.89265625 90.55046875 -45.56265625 91.87046875 -45.22265625 93.23046875 C-49.22265625 93.23046875 -49.22265625 93.23046875 -51.29296875 91.4375 C-52.31003906 90.25220703 -52.31003906 90.25220703 -53.34765625 89.04296875 C-54.03085938 88.26566406 -54.7140625 87.48835938 -55.41796875 86.6875 C-57.20165144 84.25906621 -58.24512131 82.06733561 -59.22265625 79.23046875 C-59.88265625 79.23046875 -60.54265625 79.23046875 -61.22265625 79.23046875 C-68.96513738 64.06895219 -68.96513738 64.06895219 -69.15234375 56.0859375 C-69.09837092 54.13485353 -69.09837092 54.13485353 -70.22265625 52.23046875 C-70.26264825 50.23086863 -70.26612424 48.22999633 -70.22265625 46.23046875 C-69.23265625 46.23046875 -68.24265625 46.23046875 -67.22265625 46.23046875 C-66.89265625 45.57046875 -66.56265625 44.91046875 -66.22265625 44.23046875 C-65.23265625 44.56046875 -64.24265625 44.89046875 -63.22265625 45.23046875 C-63.22265625 40.61046875 -63.22265625 35.99046875 -63.22265625 31.23046875 C-56.80764532 28.66446438 -52.10850574 29.09136068 -45.22265625 29.23046875 C-45.22265625 23.29046875 -45.22265625 17.35046875 -45.22265625 11.23046875 C-32.02265625 11.23046875 -18.82265625 11.23046875 -5.22265625 11.23046875 C-5.22265625 8.26046875 -5.22265625 5.29046875 -5.22265625 2.23046875 C-3.22265625 0.23046875 -3.22265625 0.23046875 0 0 Z M75.77734375 12.23046875 C72.2090512 17.73158644 71.97072678 22.88274387 72.77734375 29.23046875 C74.23471711 34.05980399 75.52113107 37.39299363 79.77734375 40.23046875 C79.71484375 42.54296875 79.71484375 42.54296875 78.77734375 45.23046875 C73.01627782 48.33258117 67.63148953 49.34561716 61.1648407 49.38868713 C60.04729904 49.39847595 58.92975739 49.40826477 57.77835083 49.41835022 C55.95386917 49.42698341 55.95386917 49.42698341 54.0925293 49.43579102 C52.80432785 49.44569061 51.5161264 49.45559021 50.18888855 49.46578979 C46.66452331 49.49276518 43.14014478 49.51381448 39.61573386 49.53379178 C35.92949247 49.55569691 32.24329171 49.58306341 28.55708313 49.60984802 C21.58032634 49.65971379 14.60354693 49.70467525 7.626746 49.74787039 C-0.31762286 49.79729511 -8.26195095 49.85219379 -16.20628035 49.90754998 C-32.54503471 50.02127611 -48.88382648 50.12813546 -65.22265625 50.23046875 C-65.0860511 51.81546862 -64.94313409 53.39992521 -64.79760742 54.98413086 C-64.71870773 55.86652939 -64.63980804 56.74892792 -64.55851746 57.6580658 C-63.74160712 63.91488417 -60.80357275 69.53508091 -58.22265625 75.23046875 C-57.87203125 76.20757812 -57.52140625 77.1846875 -57.16015625 78.19140625 C-55.8121878 81.15880902 -54.9954971 82.47603355 -52.22265625 84.23046875 C-45.9793055 85.44879915 -39.51180655 84.75824835 -33.22265625 84.23046875 C-32.04832031 84.14539063 -30.87398437 84.0603125 -29.6640625 83.97265625 C-27.73452326 83.81708872 -25.80593799 83.64888611 -23.87890625 83.46484375 C-21.13608799 83.22283037 -18.41256038 83.05956082 -15.66015625 82.98046875 C-14.87511719 82.9546875 -14.09007812 82.92890625 -13.28125 82.90234375 C-10.69575866 83.31445243 -9.94529397 84.33307068 -8.22265625 86.23046875 C-7.56265625 86.23046875 -6.90265625 86.23046875 -6.22265625 86.23046875 C-6.40828125 87.99390625 -6.40828125 87.99390625 -6.59765625 89.79296875 C-6.57397041 94.25380112 -5.18994957 96.52586006 -2.1328125 99.69140625 C6.25999425 106.45370862 17.41500969 107.23775709 27.77734375 106.23046875 C41.80640379 102.50164826 53.95419674 94.65823482 64.77734375 85.23046875 C65.85855368 84.37361585 66.94147028 83.51890389 68.02734375 82.66796875 C71.01168771 80.02275478 73.53348037 77.1810163 76.109375 74.14453125 C77.77734375 72.23046875 77.77734375 72.23046875 80.52734375 69.60546875 C83.03401024 66.95954301 84.20045527 64.51039678 85.77734375 61.23046875 C86.7825457 59.71994906 87.80472179 58.22064432 88.83984375 56.73046875 C91.15711436 53.33218853 92.74551322 50.2546078 93.77734375 46.23046875 C94.33421875 46.26527344 94.89109375 46.30007812 95.46484375 46.3359375 C102.74577697 46.59421385 108.6041497 45.53379283 114.08984375 40.48046875 C117.61113025 36.61376995 119.62654158 32.59303605 119.96484375 27.29296875 C119.90296875 26.61234375 119.84109375 25.93171875 119.77734375 25.23046875 C114.94151578 22.43018697 110.22571962 22.49304074 104.77734375 23.23046875 C101.2349509 24.5806238 98.01433212 26.26440206 94.77734375 28.23046875 C94.535 27.71097656 94.29265625 27.19148438 94.04296875 26.65625 C90.81471595 19.93900091 88.03964319 15.04646241 80.77734375 12.23046875 C78.02588101 11.97762508 78.02588101 11.97762508 75.77734375 12.23046875 Z " fill="#04335F" transform="translate(201.22265625,83.76953125)"/>
<path d="M0 0 C2.97 0 5.94 0 9 0 C9 3.63 9 7.26 9 11 C16.59 11 24.18 11 32 11 C32 17.27 32 23.54 32 30 C37.94 30 43.88 30 50 30 C50 33.63 50 37.26 50 41 C14.36 41 -21.28 41 -58 41 C-58 37.04 -58 33.08 -58 29 C-52.06 29 -46.12 29 -40 29 C-40 23.06 -40 17.12 -40 11 C-26.66666667 11 -13.33333333 11 0 11 C0 7.37 0 3.74 0 0 Z " fill="#046690" transform="translate(200,88)"/>
<path d="M0 0 C0 3 0 3 -2.25 5.375 C-3.1575 6.24125 -4.065 7.1075 -5 8 C-5.598125 8.78375 -6.19625 9.5675 -6.8125 10.375 C-9.25015609 13.30018731 -11.90558651 15.64765673 -14.80078125 18.109375 C-16.28182077 19.38259547 -17.73758205 20.68575196 -19.16796875 22.015625 C-31.904786 33.82817764 -47.91833332 42.52773769 -65.47265625 42.10546875 C-66.30667969 42.07066406 -67.14070312 42.03585938 -68 42 C-68 41.67 -68 41.34 -68 41 C-63.545 40.505 -63.545 40.505 -59 40 C-59.33 38.7625 -59.66 37.525 -60 36.25 C-60.79891159 33.25408155 -61 31.19892281 -61 28 C-61.66 28 -62.32 28 -63 28 C-63.33 26.02 -63.66 24.04 -64 22 C-63.34 22 -62.68 22 -62 22 C-62 21.34 -62 20.68 -62 20 C-61.34 20 -60.68 20 -60 20 C-60 17.69 -60 15.38 -60 13 C-63.96 12.67 -67.92 12.34 -72 12 C-72 11.01 -72 10.02 -72 9 C-65.93896947 8.6289165 -61.24117845 8.72426347 -56 12 C-54.35948864 15.91899935 -55.01501425 18.41251004 -56.5078125 22.20703125 C-56.78512207 22.91964111 -57.06243164 23.63225098 -57.34814453 24.36645508 C-57.56325684 24.9055249 -57.77836914 25.44459473 -58 26 C-40.21647611 23.02793318 -40.21647611 23.02793318 -24 16 C-23.175 15.690625 -22.35 15.38125 -21.5 15.0625 C-18.85210028 14.07683391 -18.85210028 14.07683391 -16.5 11.9375 C-13.8814868 9.90815227 -12.24633712 9.37100996 -9 9 C-9 8.34 -9 7.68 -9 7 C-8.34 7 -7.68 7 -7 7 C-7 6.34 -7 5.68 -7 5 C-5.46875 3.7109375 -5.46875 3.7109375 -3.5 2.375 C-2.8503125 1.92898437 -2.200625 1.48296875 -1.53125 1.0234375 C-0.77328125 0.51683594 -0.77328125 0.51683594 0 0 Z " fill="#0A7FAE" transform="translate(284,148)"/>
<path d="M0 0 C0.89557617 -0.01804688 1.79115234 -0.03609375 2.71386719 -0.0546875 C3.8868335 -0.08272461 3.8868335 -0.08272461 5.08349609 -0.11132812 C6.98730469 0.1015625 6.98730469 0.1015625 8.98730469 2.1015625 C9.42557438 3.67367832 9.81539918 5.25956496 10.17480469 6.8515625 C12.13885466 13.72573742 16.10614294 16.39638514 22.04980469 19.9140625 C25.0529615 21.12810461 27.77806242 21.71950985 30.98730469 22.1015625 C30.98730469 22.4315625 30.98730469 22.7615625 30.98730469 23.1015625 C10.54312138 24.07069313 -4.85239433 20.54176316 -22.01269531 9.1015625 C-22.01269531 8.4415625 -22.01269531 7.7815625 -22.01269531 7.1015625 C-24.48769531 6.1115625 -24.48769531 6.1115625 -27.01269531 5.1015625 C-27.01269531 4.4415625 -27.01269531 3.7815625 -27.01269531 3.1015625 C-27.67269531 3.1015625 -28.33269531 3.1015625 -29.01269531 3.1015625 C-29.01269531 2.4415625 -29.01269531 1.7815625 -29.01269531 1.1015625 C-24.88782381 0.93161382 -20.76278155 0.76620996 -16.63769531 0.6015625 C-15.48140625 0.55386719 -14.32511719 0.50617188 -13.13378906 0.45703125 C-8.75643841 0.28391569 -4.37824304 0.14759717 0 0 Z " fill="#E6EEF3" transform="translate(182.0126953125,169.8984375)"/>
<path d="M0 0 C2.31 0 4.62 0 7 0 C8.2063366 5.22745859 7.75612577 9.76528314 7 15 C6.67 15 6.34 15 6 15 C6 11.04 6 7.08 6 3 C5.34 3 4.68 3 4 3 C4 7.29 4 11.58 4 16 C-1.02929688 16.29296875 -1.02929688 16.29296875 -6.05859375 16.5859375 C-7.02925781 16.72257812 -7.99992187 16.85921875 -9 17 C-9.33 17.66 -9.66 18.32 -10 19 C-0.1 19 9.8 19 20 19 C20 19.33 20 19.66 20 20 C-23.56 20 -67.12 20 -112 20 C-112.33 20.99 -112.66 21.98 -113 23 C-113 21.68 -113 20.36 -113 19 C-110.36 18.34 -107.72 17.68 -105 17 C-105 16.34 -105 15.68 -105 15 C-69.69 15 -34.38 15 2 15 C2 11.37 2 7.74 2 4 C-3.94 4 -9.88 4 -16 4 C-16 3.67 -16 3.34 -16 3 C-12.32612505 2.14701624 -8.9552607 1.89210529 -5.1875 1.9375 C-4.21167969 1.94652344 -3.23585938 1.95554687 -2.23046875 1.96484375 C-1.12638672 1.98224609 -1.12638672 1.98224609 0 2 C0 1.34 0 0.68 0 0 Z " fill="#094171" transform="translate(248,114)"/>
<path d="M0 0 C16.17 0 32.34 0 49 0 C49 3.63 49 7.26 49 11 C48 12 48 12 46.05747986 12.12025452 C45.20698563 12.11803391 44.35649139 12.11581329 43.48022461 12.11352539 C42.03884377 12.11341209 42.03884377 12.11341209 40.56834412 12.11329651 C39.523564 12.10813522 38.47878387 12.10297394 37.40234375 12.09765625 C36.33834854 12.0962413 35.27435333 12.09482635 34.17811584 12.09336853 C30.76454917 12.08775064 27.351047 12.07519511 23.9375 12.0625 C21.62955824 12.05748731 19.32161545 12.052924 17.01367188 12.04882812 C11.34242289 12.03777539 5.6712224 12.02049877 0 12 C0 8.04 0 4.08 0 0 Z " fill="#1E91BD" transform="translate(182,117)"/>
<path d="M0 0 C-1.32633063 0.6600951 -2.66160815 1.30221603 -4 1.9375 C-5.11375 2.47697266 -5.11375 2.47697266 -6.25 3.02734375 C-13.59637688 5.62570716 -21.60396694 5.13796719 -29.29101562 5.11352539 C-31.10693207 5.11374443 -31.10693207 5.11374443 -32.95953369 5.1139679 C-36.25649271 5.11339334 -39.5534085 5.108401 -42.85035896 5.10139394 C-46.3043308 5.09511449 -49.75830361 5.09455298 -53.21228027 5.09336853 C-59.74272631 5.0902687 -66.27315548 5.08207358 -72.80359411 5.07201904 C-80.24257166 5.06081591 -87.68155005 5.05533689 -95.12053394 5.05032361 C-110.41369904 5.03988976 -125.70684734 5.02231657 -141 5 C-141 3.68 -141 2.36 -141 1 C-139.96051728 0.99365209 -139.96051728 0.99365209 -138.9000349 0.98717594 C-122.04998175 0.88393996 -105.19997289 0.77531282 -88.34999371 0.66066074 C-80.2015241 0.60534669 -72.05305012 0.55186766 -63.90454102 0.50268555 C-56.80357167 0.45982146 -49.70263432 0.41353782 -42.60171443 0.36312145 C-38.84069979 0.33653845 -35.07969142 0.31168581 -31.31863976 0.29092598 C-27.1234299 0.26770574 -22.92830993 0.23685225 -18.7331543 0.20532227 C-17.48159042 0.1995668 -16.23002655 0.19381134 -14.9405365 0.18788147 C-13.80050171 0.17809265 -12.66046692 0.16830383 -11.48588562 0.15821838 C-9.99672905 0.14853956 -9.99672905 0.14853956 -8.47748852 0.1386652 C-0.86261873 -0.28753958 -0.86261873 -0.28753958 0 0 Z " fill="#45B7DE" transform="translate(278,135)"/>
<path d="M0 0 C1.90072266 0.02126953 1.90072266 0.02126953 3.83984375 0.04296875 C5.74443359 0.05263672 5.74443359 0.05263672 7.6875 0.0625 C10.77734375 0.23046875 10.77734375 0.23046875 11.77734375 1.23046875 C11.84939886 2.91655841 11.86120443 4.60547534 11.83984375 6.29296875 C11.83082031 7.21207031 11.82179687 8.13117188 11.8125 9.078125 C11.80089844 9.78839844 11.78929687 10.49867187 11.77734375 11.23046875 C12.40302246 11.22523193 13.02870117 11.21999512 13.67333984 11.21459961 C16.49966432 11.19385257 19.3259728 11.18081589 22.15234375 11.16796875 C23.62960938 11.15540039 23.62960938 11.15540039 25.13671875 11.14257812 C26.54824219 11.13774414 26.54824219 11.13774414 27.98828125 11.1328125 C29.29224854 11.12495728 29.29224854 11.12495728 30.62255859 11.11694336 C32.77734375 11.23046875 32.77734375 11.23046875 34.77734375 12.23046875 C34.77734375 18.17046875 34.77734375 24.11046875 34.77734375 30.23046875 C38.73734375 30.23046875 42.69734375 30.23046875 46.77734375 30.23046875 C46.77734375 30.89046875 46.77734375 31.55046875 46.77734375 32.23046875 C38.85734375 32.72546875 38.85734375 32.72546875 30.77734375 33.23046875 C30.77734375 27.29046875 30.77734375 21.35046875 30.77734375 15.23046875 C23.18734375 15.23046875 15.59734375 15.23046875 7.77734375 15.23046875 C7.77734375 11.60046875 7.77734375 7.97046875 7.77734375 4.23046875 C4.80734375 4.23046875 1.83734375 4.23046875 -1.22265625 4.23046875 C-1.22265625 7.86046875 -1.22265625 11.49046875 -1.22265625 15.23046875 C-7.16265625 15.23046875 -13.10265625 15.23046875 -19.22265625 15.23046875 C-19.55265625 16.55046875 -19.88265625 17.87046875 -20.22265625 19.23046875 C-20.55265625 18.24046875 -20.88265625 17.25046875 -21.22265625 16.23046875 C-27.82265625 15.90046875 -34.42265625 15.57046875 -41.22265625 15.23046875 C-41.22265625 18.20046875 -41.22265625 21.17046875 -41.22265625 24.23046875 C-42.21265625 24.56046875 -43.20265625 24.89046875 -44.22265625 25.23046875 C-44.24951563 23.08470238 -44.26898713 20.9388423 -44.28515625 18.79296875 C-44.29675781 17.59800781 -44.30835938 16.40304688 -44.3203125 15.171875 C-44.22265625 12.23046875 -44.22265625 12.23046875 -43.22265625 11.23046875 C-40.41102245 11.14184883 -37.6240737 11.1152452 -34.8125 11.1328125 C-33.97046524 11.13422745 -33.12843048 11.1356424 -32.26087952 11.13710022 C-29.5606029 11.14271612 -26.86040797 11.15527127 -24.16015625 11.16796875 C-22.33398557 11.1729817 -20.50781359 11.17754496 -18.68164062 11.18164062 C-14.19528083 11.19269071 -9.70898241 11.20996596 -5.22265625 11.23046875 C-5.24585938 10.60398437 -5.2690625 9.9775 -5.29296875 9.33203125 C-5.31101563 8.51476562 -5.3290625 7.6975 -5.34765625 6.85546875 C-5.37085938 6.04335937 -5.3940625 5.23125 -5.41796875 4.39453125 C-5.07522684 0.59695084 -3.61045246 0.25820205 0 0 Z " fill="#03335E" transform="translate(201.22265625,83.76953125)"/>
<path d="M0 0 C2.97 0 5.94 0 9 0 C9.34058393 2.47835631 9.67256479 4.9573995 10 7.4375 C10.09539062 8.12521484 10.19078125 8.81292969 10.2890625 9.52148438 C10.97790197 14.81078743 11 19.56674588 11 25 C1.76 25 -7.48 25 -17 25 C-17 20.71 -17 16.42 -17 12 C-9.08 11.505 -9.08 11.505 -1 11 C-0.67 7.37 -0.34 3.74 0 0 Z " fill="#1F91BE" transform="translate(200,88)"/>
<path d="M0 0 C3.04386724 -0.08226668 5.07175348 0.02391783 8 1 C8 2.98 8 4.96 8 7 C8.70125 6.649375 9.4025 6.29875 10.125 5.9375 C13.53763968 4.82468271 15.56375743 5.06284293 19 6 C19.33 6.66 19.66 7.32 20 8 C19.01 8.33 18.02 8.66 17 9 C19.50774529 11.57939515 21.96967077 13.9764106 24.8125 16.1875 C25.534375 16.785625 26.25625 17.38375 27 18 C27 18.66 27 19.32 27 20 C27.7425 20.2475 28.485 20.495 29.25 20.75 C32.33223096 22.15101407 34.01369297 23.24972873 36 26 C35.75 29.25 35.75 29.25 35 32 C33.3125 32.6875 33.3125 32.6875 31 33 C27.94462637 31.62508187 26.22862878 30.29395129 24.16796875 27.64453125 C21.9249063 24.90839922 19.61859278 22.95540985 16.8125 20.8125 C12.10320285 17.20640569 12.10320285 17.20640569 11 15 C10.960008 13.00039988 10.95653201 10.99952758 11 9 C10.34 9 9.68 9 9 9 C9 12.63 9 16.26 9 20 C6.23776722 17.23776722 6.42143709 14.79293383 6 11 C1.545 12.485 1.545 12.485 -3 14 C-2.34 12.02 -1.68 10.04 -1 8 C-2.32 7.67 -3.64 7.34 -5 7 C-5 6.01 -5 5.02 -5 4 C-3.68 4 -2.36 4 -1 4 C-0.67 2.68 -0.34 1.36 0 0 Z " fill="#221B36" transform="translate(161,52)"/>
<path d="M0 0 C0.66 0 1.32 0 2 0 C2.99 1.98 3.98 3.96 5 6 C6.32 5.67 7.64 5.34 9 5 C9 4.34 9 3.68 9 3 C10.32 2.67 11.64 2.34 13 2 C13 1.34 13 0.68 13 0 C13.66 0 14.32 0 15 0 C14.57476184 1.60746056 14.13429874 3.21089836 13.6875 4.8125 C13.44386719 5.70582031 13.20023438 6.59914063 12.94921875 7.51953125 C11.96994977 10.07852631 10.95374427 11.15694946 9 13 C9.1762044 15.03871245 9.1762044 15.03871245 10 17 C10.33 17.99 10.66 18.98 11 20 C11.66 20.33 12.32 20.66 13 21 C11.576875 21.12375 11.576875 21.12375 10.125 21.25 C6.89538209 21.65074923 6.89538209 21.65074923 5.625 24.0625 C5.315625 25.0215625 5.315625 25.0215625 5 26 C4.34 25.67 3.68 25.34 3 25 C3 24.34 3 23.68 3 23 C2.34 23 1.68 23 1 23 C0.01 25.475 0.01 25.475 -1 28 C-1.66 28 -2.32 28 -3 28 C-3 25.03 -3 22.06 -3 19 C-8.28 19 -13.56 19 -19 19 C-15.99895182 17.49947591 -13.90648893 16.61151408 -10.75 15.875 C-9.5125 15.58625 -8.275 15.2975 -7 15 C-7 14.34 -7 13.68 -7 13 C-8.32 12.34 -9.64 11.68 -11 11 C-10.34 9.02 -9.68 7.04 -9 5 C-6.23723823 5.52268466 -3.6739124 6.10869587 -1 7 C-0.67 4.69 -0.34 2.38 0 0 Z " fill="#272527" transform="translate(203,14)"/>
<path d="M0 0 C2.5 0.1875 2.5 0.1875 5 1 C7.43839026 4.65758539 7.24503475 6.43049244 7.23046875 10.78515625 C7.22978142 11.77049599 7.22978142 11.77049599 7.2290802 12.77574158 C7.22606376 14.1617921 7.21819559 15.54783942 7.20581055 16.93383789 C7.18753675 19.05822722 7.18530107 21.18218084 7.18554688 23.30664062 C7.14760674 33.70478651 7.14760674 33.70478651 6 36 C3.36 36 0.72 36 -2 36 C-2.04936883 31.19451403 -2.08570443 26.38917506 -2.10986328 21.58349609 C-2.11993254 19.94805328 -2.13358881 18.31262851 -2.15087891 16.67724609 C-2.17508705 14.3290563 -2.18647357 11.98110412 -2.1953125 9.6328125 C-2.21079636 8.53273361 -2.21079636 8.53273361 -2.22659302 7.41043091 C-2.22699368 5.60537303 -2.12212755 3.8009217 -2 2 C-1.34 1.34 -0.68 0.68 0 0 Z " fill="#1E1F36" transform="translate(204,44)"/>
<path d="M0 0 C0.66 0 1.32 0 2 0 C1.375 1.875 1.375 1.875 0 4 C-4.0478319 5.66313245 -7.49148918 6.2486192 -11.84664917 6.24050903 C-12.99080795 6.24325836 -14.13496674 6.24600769 -15.313797 6.24884033 C-16.55457504 6.24164978 -17.79535309 6.23445923 -19.07373047 6.22705078 C-20.39133865 6.22734283 -21.70894684 6.22763489 -23.06648254 6.22793579 C-26.66730709 6.22850818 -30.26799762 6.21677242 -33.8687911 6.20278788 C-37.63640756 6.19026146 -41.4040273 6.18910851 -45.17166138 6.18673706 C-52.30072531 6.1805279 -59.42972771 6.16412474 -66.55876458 6.14403808 C-74.67724119 6.12166151 -82.79572078 6.11068123 -90.91422057 6.10064721 C-107.60951637 6.079758 -124.30475033 6.04459301 -141 6 C-141.33 7.32 -141.66 8.64 -142 10 C-142 8.02 -142 6.04 -142 4 C-140.99200521 3.99503478 -140.99200521 3.99503478 -139.96364689 3.98996925 C-123.58712874 3.90863009 -107.21071007 3.81650216 -90.83432102 3.71247292 C-82.91471333 3.66242267 -74.9951156 3.61597909 -67.07543945 3.578125 C-60.16995299 3.54510922 -53.26454558 3.50522555 -46.35914654 3.45720994 C-42.70524554 3.4320399 -39.05139633 3.41023102 -35.39743233 3.39665604 C-31.31114536 3.38134591 -27.22510757 3.35069806 -23.13891602 3.31884766 C-21.93697601 3.31668747 -20.73503601 3.31452728 -19.49667358 3.31230164 C-9.12092245 3.68381093 -9.12092245 3.68381093 0 0 Z " fill="#2492B4" transform="translate(278,130)"/>
<path d="M0 0 C5.94 0 11.88 0 18 0 C18 4.62 18 9.24 18 14 C12.06 14 6.12 14 0 14 C0 9.38 0 4.76 0 0 Z " fill="#1D8DB7" transform="translate(161,99)"/>
<path d="M0 0 C0.3125 2.6875 0.3125 2.6875 0 6 C-2.55024365 9.10164769 -4.17699247 10.72566416 -8 12 C-8.13535156 12.61617187 -8.27070313 13.23234375 -8.41015625 13.8671875 C-9.24503515 16.88602113 -10.81013629 17.5191553 -13.4375 19.125 C-15.91170166 20.65797246 -17.93721412 21.93721412 -20 24 C-22.625 24.125 -22.625 24.125 -25 24 C-25.17760176 20.80316835 -25.02901471 18.04708238 -24 15 C-21.87799282 13.06699751 -19.70334048 11.75905885 -17.21484375 10.3359375 C-14.44398027 8.66462302 -12.90589689 6.58657435 -11 4 C-7.29376725 0.39129969 -5.17141168 -0.48106155 0 0 Z " fill="#272039" transform="translate(240,61)"/>
<path d="M0 0 C0.66 0 1.32 0 2 0 C1.7834375 0.81984375 1.566875 1.6396875 1.34375 2.484375 C1.0653125 3.56203125 0.786875 4.6396875 0.5 5.75 C0.2215625 6.81734375 -0.056875 7.8846875 -0.34375 8.984375 C-1.14175989 12.13705302 -1.14175989 12.13705302 -1 16 C0.32 16.66 1.64 17.32 3 18 C0.13822943 19.43088528 -1.93375773 18.59991697 -5 18 C-5.33 18.66 -5.66 19.32 -6 20 C-6.99 19.67 -7.98 19.34 -9 19 C-10.485 21.475 -10.485 21.475 -12 24 C-13.10844919 20.67465243 -12.84454356 18.37817425 -12 15 C-14.31 14.67 -16.62 14.34 -19 14 C-19 13.34 -19 12.68 -19 12 C-17.35 11.34 -15.7 10.68 -14 10 C-14 7.36 -14 4.72 -14 2 C-11.03 3.485 -11.03 3.485 -8 5 C-7.34 3.68 -6.68 2.36 -6 1 C-5.67 1.66 -5.34 2.32 -5 3 C-3.68 3 -2.36 3 -1 3 C-0.67 2.01 -0.34 1.02 0 0 Z " fill="#0C223B" transform="translate(254,45)"/>
<path d="M0 0 C0.66 0.33 1.32 0.66 2 1 C2 11.23 2 21.46 2 32 C3.32 31.67 4.64 31.34 6 31 C5.67 33.64 5.34 36.28 5 39 C7.97 38.505 7.97 38.505 11 38 C11 38.66 11 39.32 11 40 C10.21625 40.20625 9.4325 40.4125 8.625 40.625 C5.22243212 42.0205647 5.22243212 42.0205647 4 48 C10.6 48 17.2 48 24 48 C24 48.33 24 48.66 24 49 C17.07 49 10.14 49 3 49 C2.505 44.05 2.505 44.05 2 39 C1.02417969 39 0.04835937 39 -0.95703125 39 C-5.63802083 39 -10.31901042 39 -15 39 C-14.67 36.03 -14.34 33.06 -14 30 C-13.01 29.67 -12.02 29.34 -11 29 C-10.93941406 28.3709375 -10.87882813 27.741875 -10.81640625 27.09375 C-10.29004493 21.71676663 -9.69453543 16.35784473 -9 11 C-8.67 11 -8.34 11 -8 11 C-8 18.59 -8 26.18 -8 34 C-5.36 34 -2.72 34 0 34 C0 22.78 0 11.56 0 0 Z " fill="#194567" transform="translate(210,46)"/>
<path d="M0 0 C5.28 0 10.56 0 16 0 C16 4.62 16 9.24 16 14 C10.72 14 5.44 14 0 14 C0 9.38 0 4.76 0 0 Z " fill="#1F91BB" transform="translate(214,99)"/>
<path d="M0 0 C5.94 0 11.88 0 18 0 C18 3.96 18 7.92 18 12 C12.06 12 6.12 12 0 12 C0 8.04 0 4.08 0 0 Z " fill="#1E90B9" transform="translate(161,117)"/>
<path d="M0 0 C1.2065625 0.0309375 1.2065625 0.0309375 2.4375 0.0625 C2.79970266 1.85255941 3.15202469 3.64462057 3.5 5.4375 C3.79583984 6.93410156 3.79583984 6.93410156 4.09765625 8.4609375 C4.4375 11.0625 4.4375 11.0625 3.4375 13.0625 C2.81875 12.918125 2.2 12.77375 1.5625 12.625 C-1.14813291 12.13708608 -3.75980456 11.85644939 -6.5 11.625 C-10.43597608 11.26023092 -13.86240995 10.52306186 -17.5625 9.0625 C-17.5625 8.4025 -17.5625 7.7425 -17.5625 7.0625 C-18.2225 6.7325 -18.8825 6.4025 -19.5625 6.0625 C-19.5625 5.0725 -19.5625 4.0825 -19.5625 3.0625 C-18.5725 3.0625 -17.5825 3.0625 -16.5625 3.0625 C-16.5625 2.4025 -16.5625 1.7425 -16.5625 1.0625 C-15.63566406 1.07410156 -14.70882812 1.08570313 -13.75390625 1.09765625 C-11.95759766 1.11119141 -11.95759766 1.11119141 -10.125 1.125 C-8.33255859 1.14240234 -8.33255859 1.14240234 -6.50390625 1.16015625 C-3.2206441 1.0511502 -3.15114082 0.07685709 0 0 Z " fill="#F6F6F6" transform="translate(184.5625,170.9375)"/>
<path d="M0 0 C0 0.66 0 1.32 0 2 C0.66 2 1.32 2 2 2 C2.07476562 2.66386719 2.14953125 3.32773438 2.2265625 4.01171875 C2.92673353 8.71384774 3.40894692 11.35396523 6.6875 14.9375 C11.97360265 18.22884693 16.80287566 20.24425313 23 21 C23 21.66 23 22.32 23 23 C23.66 23 24.32 23 25 23 C25 23.99 25 24.98 25 26 C19.06 26 13.12 26 7 26 C7 25.67 7 25.34 7 25 C9.31 24.67 11.62 24.34 14 24 C13.41992188 23.72027344 12.83984375 23.44054687 12.2421875 23.15234375 C5.71136445 19.80071674 0.68467135 16.36483031 -2.03125 9.328125 C-2.77285904 6.89729538 -3.43193632 4.47655832 -4 2 C-3.67 1.67 -3.34 1.34 -3 1 C-10.26 0.67 -17.52 0.34 -25 0 C-25 -0.33 -25 -0.66 -25 -1 C-4.46396396 -2.97597598 -4.46396396 -2.97597598 0 0 Z " fill="#13466D" transform="translate(193,168)"/>
<path d="M0 0 C2.47923801 -0.02685095 4.9581884 -0.04676547 7.4375 -0.0625 C8.14455078 -0.07087891 8.85160156 -0.07925781 9.58007812 -0.08789062 C11.38693559 -0.09653588 13.19387603 -0.05220011 15 0 C16 1 16 1 16.09765625 3.28515625 C16.06510417 5.85677083 16.03255208 8.42838542 16 11 C10.72 11 5.44 11 0 11 C0 7.37 0 3.74 0 0 Z " fill="#2383AE" transform="translate(142,118)"/>
<path d="M0 0 C4.95 0 9.9 0 15 0 C15 3.63 15 7.26 15 11 C10.05 11 5.1 11 0 11 C0 7.37 0 3.74 0 0 Z " fill="#1D93BE" transform="translate(235,118)"/>
<path d="M0 0 C0.825 0.144375 1.65 0.28875 2.5 0.4375 C4.9088147 0.82463093 7.32700276 1.15619928 9.75 1.44140625 C13.71353944 1.92956945 17.5882437 2.69178589 21.5 3.5 C29.63953401 5.11565081 37.71984687 5.68068558 46 6 C46.495 7.485 46.495 7.485 47 9 C43.04173069 9.05880857 39.08357608 9.09386513 35.125 9.125 C34.01640625 9.14175781 32.9078125 9.15851563 31.765625 9.17578125 C22.18196871 9.2321557 13.93640033 8.45435367 5.375 3.875 C4.35148438 3.33617187 3.32796875 2.79734375 2.2734375 2.2421875 C1.52320313 1.83226562 0.77296875 1.42234375 0 1 C0 0.67 0 0.34 0 0 Z " fill="#0C3156" transform="translate(170,188)"/>
<path d="M0 0 C0.99 0.495 0.99 0.495 2 1 C2 1.66 2 2.32 2 3 C15.53 3 29.06 3 43 3 C43.495 3.99 43.495 3.99 44 5 C35.39421862 5.87019244 26.8960185 6.12607367 18.25 6.0625 C17.0640625 6.05798828 15.878125 6.05347656 14.65625 6.04882812 C11.77077772 6.03719316 8.88541787 6.0208484 6 6 C6 6.66 6 7.32 6 8 C6.66 8 7.32 8 8 8 C8.33 9.32 8.66 10.64 9 12 C5 12 5 12 2.8125 9.9375 C0.72409476 6.55284323 0.30843004 3.93248307 0 0 Z " fill="#0F3C61" transform="translate(147,165)"/>
<path d="M0 0 C0.60328125 0.40992188 1.2065625 0.81984375 1.828125 1.2421875 C2.62734375 1.78101563 3.4265625 2.31984375 4.25 2.875 C5.03890625 3.40867188 5.8278125 3.94234375 6.640625 4.4921875 C10.79861078 7.14944331 14.07882799 8.32893109 19 9 C19 9.33 19 9.66 19 10 C6.60602965 10.46127001 -4.24660562 10.4248073 -16 6 C-16 5.67 -16 5.34 -16 5 C-14.89591797 4.83564453 -14.89591797 4.83564453 -13.76953125 4.66796875 C-6.44134769 3.53139879 -6.44134769 3.53139879 0 0 Z " fill="#BCC5CD" transform="translate(194,183)"/>
<path d="M0 0 C0.99 0 1.98 0 3 0 C3.33 9.9 3.66 19.8 4 30 C2.35 30 0.7 30 -1 30 C-1.02465746 25.8882744 -1.04283959 21.77657722 -1.05493164 17.66479492 C-1.0599708 16.26504772 -1.06680216 14.8653058 -1.07543945 13.46557617 C-1.0875232 11.45754223 -1.09269807 9.44947043 -1.09765625 7.44140625 C-1.10289307 6.23170166 -1.10812988 5.02199707 -1.11352539 3.77563477 C-1 1 -1 1 0 0 Z " fill="#7C2932" transform="translate(205,47)"/>
<path d="M0 0 C3.04386724 -0.08226668 5.07175348 0.02391783 8 1 C8 3.64 8 6.28 8 9 C7.2575 9.268125 6.515 9.53625 5.75 9.8125 C3.12953519 10.94406435 1.2565011 12.28817158 -1 14 C-1.66 14 -2.32 14 -3 14 C-2.34 12.02 -1.68 10.04 -1 8 C-2.32 7.67 -3.64 7.34 -5 7 C-5 6.01 -5 5.02 -5 4 C-3.68 4 -2.36 4 -1 4 C-0.67 2.68 -0.34 1.36 0 0 Z " fill="#0E2B4B" transform="translate(161,52)"/>
<path d="M0 0 C6.24671245 0.72077451 10.80420439 6.80420439 15 11 C16.09858421 11.88199873 17.20281803 12.75700521 18.3125 13.625 C19.199375 14.40875 20.08625 15.1925 21 16 C21 16.99 21 17.98 21 19 C16.03949703 18.06509367 12.85428403 15.09629867 9 12 C8.31550781 11.45214844 7.63101563 10.90429688 6.92578125 10.33984375 C3.28962795 7.33798899 3.28962795 7.33798899 2 6 C2 5.34 2 4.68 2 4 C1.34 4 0.68 4 0 4 C0 2.68 0 1.36 0 0 Z " fill="#9D2B35" transform="translate(174,63)"/>
<path d="M0 0 C23.1 0 46.2 0 70 0 C70 0.33 70 0.66 70 1 C69.38834488 1.01030746 68.77668976 1.02061493 68.14649963 1.03123474 C61.80417684 1.13906745 55.46200286 1.25368342 49.11987305 1.37231445 C46.75011292 1.4157381 44.38032 1.45740749 42.01049805 1.49731445 C38.61236667 1.55483768 35.21440157 1.61858303 31.81640625 1.68359375 C30.74975235 1.70030624 29.68309845 1.71701874 28.5841217 1.73423767 C27.60318039 1.75418289 26.62223907 1.77412811 25.61157227 1.79467773 C24.74331314 1.81022202 23.87505402 1.8257663 22.98048401 1.84178162 C20.99919221 1.78462425 20.99919221 1.78462425 20 3 C17.19488047 3.15354338 14.43136329 3.23165776 11.625 3.25 C10.45324219 3.2809375 10.45324219 3.2809375 9.2578125 3.3125 C7.16932469 3.32680471 5.08146281 3.17175135 3 3 C2.01 2.01 1.02 1.02 0 0 Z " fill="#013E6B" transform="translate(161,129)"/>
<path d="M0 0 C2.31 0 4.62 0 7 0 C8.2063366 5.22745859 7.75612577 9.76528314 7 15 C6.67 15 6.34 15 6 15 C6 11.04 6 7.08 6 3 C5.34 3 4.68 3 4 3 C4 7.29 4 11.58 4 16 C-1.61 16 -7.22 16 -13 16 C-13 15.67 -13 15.34 -13 15 C-8.05 15 -3.1 15 2 15 C2 11.37 2 7.74 2 4 C-3.94 4 -9.88 4 -16 4 C-16 3.67 -16 3.34 -16 3 C-12.32612505 2.14701624 -8.9552607 1.89210529 -5.1875 1.9375 C-4.21167969 1.94652344 -3.23585937 1.95554687 -2.23046875 1.96484375 C-1.49441406 1.97644531 -0.75835937 1.98804687 0 2 C0 1.34 0 0.68 0 0 Z " fill="#043D68" transform="translate(248,114)"/>
<path d="M0 0 C2 3 2 3 2 6 C2.99 6 3.98 6 5 6 C4.979375 6.78375 4.95875 7.5675 4.9375 8.375 C4.81315937 10.98114961 4.81315937 10.98114961 6 13 C5.01 13 4.02 13 3 13 C2.67 13.99 2.34 14.98 2 16 C1.01 15.67 0.02 15.34 -1 15 C-1.33 15.66 -1.66 16.32 -2 17 C-2 15.35 -2 13.7 -2 12 C-3.98 12 -5.96 12 -8 12 C-6.68 11.34 -5.36 10.68 -4 10 C-5.98 6.535 -5.98 6.535 -8 3 C-5.69 3.33 -3.38 3.66 -1 4 C-0.67 2.68 -0.34 1.36 0 0 Z " fill="#CE9543" transform="translate(204,19)"/>
<path d="M0 0 C5.61 0 11.22 0 17 0 C17 0.33 17 0.66 17 1 C11.72 1 6.44 1 1 1 C1 5.29 1 9.58 1 14 C3.97 14 6.94 14 10 14 C10 14.66 10 15.32 10 16 C22.54 16.33 35.08 16.66 48 17 C48 17.33 48 17.66 48 18 C32.49 18 16.98 18 1 18 C-0.20693821 14.37918537 -0.10782079 11.0749281 -0.0625 7.3125 C-0.041875 4.899375 -0.02125 2.48625 0 0 Z " fill="#1077A1" transform="translate(182,99)"/>
<path d="M0 0 C1.98 0 3.96 0 6 0 C6.19272728 4.14363644 6.2731723 7.44199119 4 11 C0.375 12.3125 0.375 12.3125 -3 13 C-3 11.68 -3 10.36 -3 9 C-4.32 8.34 -5.64 7.68 -7 7 C-6.01 7 -5.02 7 -4 7 C-4 5.35 -4 3.7 -4 2 C-3.34 1.67 -2.68 1.34 -2 1 C-1.34 1.33 -0.68 1.66 0 2 C0 1.34 0 0.68 0 0 Z " fill="#202229" transform="translate(246,50)"/>
<path d="M0 0 C5.875 0.875 5.875 0.875 7 2 C6.61992679 9.4747732 4.6311398 13.48325758 -0.875 18.75 C-6.81129675 23.02413366 -11.92999312 23.28280028 -19 23 C-18.67 22.34 -18.34 21.68 -18 21 C-14.91051895 20.35336443 -11.81613929 19.97571651 -8.6875 19.5625 C-7.800625 19.376875 -6.91375 19.19125 -6 19 C-5.67 18.34 -5.34 17.68 -5 17 C-4.01 17 -3.02 17 -2 17 C-1.5359375 16.071875 -1.5359375 16.071875 -1.0625 15.125 C-0.375 13.75 0.3125 12.375 1 11 C1.66 11 2.32 11 3 11 C3.12375 10.236875 3.2475 9.47375 3.375 8.6875 C4 6 4 6 6 3 C3.03 2.505 3.03 2.505 0 2 C0 1.34 0 0.68 0 0 Z " fill="#1B78A7" transform="translate(314,107)"/>
<path d="M0 0 C0 0.99 0 1.98 0 3 C-2.30078125 5.12109375 -2.30078125 5.12109375 -5.3125 7.4375 C-9.34587999 10.51155606 -9.34587999 10.51155606 -12.66796875 14.28515625 C-13.32732422 15.13400391 -13.32732422 15.13400391 -14 16 C-14.99 16 -15.98 16 -17 16 C-17 16.66 -17 17.32 -17 18 C-17.99 18 -18.98 18 -20 18 C-20 14 -20 14 -18.53125 12.32421875 C-17.8609375 11.78410156 -17.190625 11.24398437 -16.5 10.6875 C-12.82263449 7.67518995 -9.32272504 4.54099152 -5.859375 1.28515625 C-4 0 -4 0 0 0 Z " fill="#9F3035" transform="translate(237,64)"/>
<path d="M0 0 C4.62 0 9.24 0 14 0 C14 0.33 14 0.66 14 1 C10.7 1 7.4 1 4 1 C4.33 1.99 4.66 2.98 5 4 C5.763125 3.814375 6.52625 3.62875 7.3125 3.4375 C10 3 10 3 13 4 C12.34 5.65 11.68 7.3 11 9 C7.37 9 3.74 9 0 9 C0 6.03 0 3.06 0 0 Z " fill="#1D92C2" transform="translate(143,119)"/>
<path d="M0 0 C2.64752004 2.57784846 4.94432065 4.91648098 7 8 C9.9795099 8.26653946 12.7488582 8.34767784 15.7265625 8.29296875 C16.58937836 8.28872391 17.45219421 8.28447906 18.34115601 8.28010559 C21.10275197 8.26328392 23.86362383 8.22562598 26.625 8.1875 C28.49478114 8.17245764 30.3645737 8.15876846 32.234375 8.14648438 C36.82319658 8.11336906 41.41147544 8.06156339 46 8 C46 8.33 46 8.66 46 9 C39.6841133 9.67493915 33.3650736 10.26170374 27.03271484 10.75976562 C25.08421973 10.9141143 23.13648816 11.07862384 21.18994141 11.25585938 C15.65797832 11.72924733 10.47497542 12.04285246 5 11 C1.71867812 8.08100137 0.23233824 5.18248129 -1 1 C-0.67 0.67 -0.34 0.34 0 0 Z " fill="#2686B5" transform="translate(144,157)"/>
<path d="M0 0 C0.66 0 1.32 0 2 0 C2 6.27 2 12.54 2 19 C2.99 19 3.98 19 5 19 C5 22.63 5 26.26 5 30 C3.35 30 1.7 30 0 30 C0 20.1 0 10.2 0 0 Z " fill="#136995" transform="translate(230,99)"/>
<path d="M0 0 C0 0.66 0 1.32 0 2 C0.9075 2.226875 1.815 2.45375 2.75 2.6875 C6.44888324 4.18127977 7.77905658 5.75400577 10 9 C9.34 10.65 8.68 12.3 8 14 C3.125 9.375 3.125 9.375 2 6 C-0.56042066 4.96961044 -0.56042066 4.96961044 -3.5625 4.3125 C-4.57441406 4.06113281 -5.58632813 3.80976562 -6.62890625 3.55078125 C-7.80259766 3.27814453 -7.80259766 3.27814453 -9 3 C-9.33 3.66 -9.66 4.32 -10 5 C-10 4.01 -10 3.02 -10 2 C-9.236875 1.855625 -8.47375 1.71125 -7.6875 1.5625 C-0.22222222 0 -0.22222222 0 0 0 Z " fill="#083865" transform="translate(286,93)"/>
<path d="M0 0 C0.66 0 1.32 0 2 0 C2.99 1.98 3.98 3.96 5 6 C6.32 5.67 7.64 5.34 9 5 C9 4.34 9 3.68 9 3 C10.32 2.67 11.64 2.34 13 2 C13 1.34 13 0.68 13 0 C13.66 0 14.32 0 15 0 C12.29384966 10.74259681 12.29384966 10.74259681 8 14 C7 11 7 11 7.9375 8.8125 C8.288125 8.214375 8.63875 7.61625 9 7 C7.906875 7.185625 6.81375 7.37125 5.6875 7.5625 C2 8 2 8 -1 7 C-0.67 4.69 -0.34 2.38 0 0 Z " fill="#152B3D" transform="translate(203,14)"/>
<path d="M0 0 C0.33 0.66 0.66 1.32 1 2 C0.01 2.33 -0.98 2.66 -2 3 C-1.34 3.33 -0.68 3.66 0 4 C-0.33 4.66 -0.66 5.32 -1 6 C-3.31 6 -5.62 6 -8 6 C-8 5.01 -8 4.02 -8 3 C-8.66 3 -9.32 3 -10 3 C-10 6.63 -10 10.26 -10 14 C-12.76223278 11.23776722 -12.57856291 8.79293383 -13 5 C-13.99 4.67 -14.98 4.34 -16 4 C-15.360625 3.87625 -14.72125 3.7525 -14.0625 3.625 C-13.381875 3.41875 -12.70125 3.2125 -12 3 C-11.67 2.34 -11.34 1.68 -11 1 C-7.03869526 -1.15042257 -4.32465019 -1.17945005 0 0 Z " fill="#1E2532" transform="translate(180,58)"/>
<path d="M0 0 C-0.226875 1.0725 -0.45375 2.145 -0.6875 3.25 C-1.36878965 6.91960215 -1.36878965 6.91960215 0.4375 9.3125 C0.953125 9.869375 1.46875 10.42625 2 11 C2 11.66 2 12.32 2 13 C2.66 13.33 3.32 13.66 4 14 C2.576875 14.12375 2.576875 14.12375 1.125 14.25 C-2.10461791 14.65074923 -2.10461791 14.65074923 -3.375 17.0625 C-3.58125 17.701875 -3.7875 18.34125 -4 19 C-4.66 18.67 -5.32 18.34 -6 18 C-5.74438677 15.6568787 -5.40729228 13.32156597 -5 11 C-4.34 10.67 -3.68 10.34 -3 10 C-3.185625 9.38125 -3.37125 8.7625 -3.5625 8.125 C-4 6 -4 6 -3 4 C-3.99 4 -4.98 4 -6 4 C-6 3.01 -6 2.02 -6 1 C-3 0 -3 0 0 0 Z " fill="#253140" transform="translate(212,21)"/>
<path d="M0 0 C3.63 0 7.26 0 11 0 C11 0.66 11 1.32 11 2 C13.64 1.34 16.28 0.68 19 0 C18 3 18 3 15 4.75 C10.57899865 6.5239153 6.5805085 5.86209117 2 5 C1.34 3.35 0.68 1.7 0 0 Z " fill="#E5E4E3" transform="translate(175,182)"/>
<path d="M0 0 C0 0.66 0 1.32 0 2 C0.66 2 1.32 2 2 2 C2 4.31 2 6.62 2 9 C0.68 9 -0.64 9 -2 9 C-2.66 6.69 -3.32 4.38 -4 2 C-3.67 1.67 -3.34 1.34 -3 1 C-10.26 0.67 -17.52 0.34 -25 0 C-25 -0.33 -25 -0.66 -25 -1 C-4.46396396 -2.97597598 -4.46396396 -2.97597598 0 0 Z " fill="#034D7A" transform="translate(193,168)"/>
<path d="M0 0 C2.375 -0.125 2.375 -0.125 5 0 C7 2 7 2 7.25 4.5 C7 7 7 7 5 9 C2.375 9.125 2.375 9.125 0 9 C-1.125 6.75 -1.125 6.75 -2 4 C-1.125 1.6875 -1.125 1.6875 0 0 Z " fill="#045C87" transform="translate(161,146)"/>
<path d="M0 0 C2 3 2 3 2.875 6.0625 C3.71071826 9.10913611 3.71071826 9.10913611 6.125 10.375 C6.74375 10.58125 7.3625 10.7875 8 11 C7.64950425 14.24208567 7.43778819 15.61527704 4.9375 17.8125 C4.298125 18.204375 3.65875 18.59625 3 19 C1 18 1 18 0 16 C1.32 14.68 2.64 13.36 4 12 C3.34 12 2.68 12 2 12 C0.375 10.5 0.375 10.5 -1 9 C-0.67 8.01 -0.34 7.02 0 6 C0.03920815 4.00038436 0.04443347 1.99950636 0 0 Z " fill="#053660" transform="translate(274,113)"/>
<path d="M0 0 C0.3125 2.6875 0.3125 2.6875 0 6 C-2.3125 8.875 -2.3125 8.875 -5 11 C-5.99 11 -6.98 11 -8 11 C-7.360625 10.236875 -6.72125 9.47375 -6.0625 8.6875 C-3.85767219 6.11753287 -3.85767219 6.11753287 -3 3 C-7.43458973 4.3937282 -9.87378374 6.60582235 -13 10 C-13.66 9.67 -14.32 9.34 -15 9 C-10.67993731 3.23991641 -7.59587799 -0.7065933 0 0 Z " fill="#251D31" transform="translate(240,61)"/>
<path d="M0 0 C-0.99 0.66 -1.98 1.32 -3 2 C-4.14077657 5.42232972 -4.09815117 8.08673217 -4.0625 11.6875 C-4.04896484 13.45673828 -4.04896484 13.45673828 -4.03515625 15.26171875 C-4.02355469 16.16535156 -4.01195312 17.06898437 -4 18 C-4.99 17.67 -5.98 17.34 -7 17 C-8.02835363 13.91493912 -8.13368434 11.7305728 -8.125 8.5 C-8.12757813 7.5409375 -8.13015625 6.581875 -8.1328125 5.59375 C-8 3 -8 3 -7 0 C-3.86650268 -1.04449911 -3.01031744 -0.93423645 0 0 Z " fill="#44A5CA" transform="translate(282,99)"/>
<path d="M0 0 C4.60139641 1.48868707 7.50227094 3.74629855 11 7 C11 7.66 11 8.32 11 9 C11.7425 9.2475 12.485 9.495 13.25 9.75 C16.33223096 11.15101407 18.01369297 12.24972873 20 15 C19.75 18.25 19.75 18.25 19 21 C17.68 20.34 16.36 19.68 15 19 C15.99 19 16.98 19 18 19 C15.81964968 14.36675557 12.76077815 12.1429458 8.64453125 9.33203125 C8.10183594 8.89246094 7.55914062 8.45289062 7 8 C7 7.34 7 6.68 7 6 C6.401875 5.7525 5.80375 5.505 5.1875 5.25 C2.71352479 3.83629988 1.56629745 2.34944617 0 0 Z " fill="#291D30" transform="translate(177,63)"/>
<path d="M0 0 C1.62463842 -0.05395478 3.24978541 -0.09277195 4.875 -0.125 C5.77992188 -0.14820313 6.68484375 -0.17140625 7.6171875 -0.1953125 C10 0 10 0 12 2 C12.6328125 4.6015625 12.6328125 4.6015625 13.125 7.625 C13.29257813 8.62789062 13.46015625 9.63078125 13.6328125 10.6640625 C13.75398437 11.43492187 13.87515625 12.20578125 14 13 C12.68 13.33 11.36 13.66 10 14 C9.22157062 10.59437148 8.90021879 7.49234244 9 4 C8.34 3.67 7.68 3.34 7 3 C6.34 2.67 5.68 2.34 5 2 C3.33805547 1.64386903 1.671549 1.30791692 0 1 C0 0.67 0 0.34 0 0 Z " fill="#DDEAF2" transform="translate(179,170)"/>
<path d="M0 0 C0.70125 0.309375 1.4025 0.61875 2.125 0.9375 C5.08936657 2.03302678 7.87698108 2.56422992 11 3 C11 2.01 11 1.02 11 0 C12.32 0 13.64 0 15 0 C16.125 6.75 16.125 6.75 15 9 C14.01 9 13.02 9 12 9 C11.34 8.01 10.68 7.02 10 6 C6.94570927 4.78715124 6.94570927 4.78715124 4 4 C3.67 4.66 3.34 5.32 3 6 C0 2.25 0 2.25 0 0 Z " fill="#17344C" transform="translate(157,48)"/>
<path d="M0 0 C1.0828125 0.2165625 1.0828125 0.2165625 2.1875 0.4375 C3.5796875 0.7159375 3.5796875 0.7159375 5 1 C6.66666667 1.33333333 8.33333333 1.66666667 10 2 C9.67 2.99 9.34 3.98 9 5 C6.03 4.505 6.03 4.505 3 4 C3.495 4.61875 3.99 5.2375 4.5 5.875 C6 8 6 8 6 10 C4.68 10.33 3.36 10.66 2 11 C2 10.01 2 9.02 2 8 C0.68 7.34 -0.64 6.68 -2 6 C-1.34 4.02 -0.68 2.04 0 0 Z " fill="#29272F" transform="translate(194,19)"/>
<path d="M0 0 C5.28 0 10.56 0 16 0 C16 0.66 16 1.32 16 2 C15.31292969 2.04898438 14.62585938 2.09796875 13.91796875 2.1484375 C12.56638672 2.26058594 12.56638672 2.26058594 11.1875 2.375 C10.29417969 2.44460937 9.40085938 2.51421875 8.48046875 2.5859375 C5.75601501 2.86645036 5.75601501 2.86645036 3 5 C1.7811879 8.55672179 1.7811879 8.55672179 1 12 C0.67 12 0.34 12 0 12 C0 8.04 0 4.08 0 0 Z " fill="#2B9CC4" transform="translate(162,100)"/>
<path d="M0 0 C4.95 0 9.9 0 15 0 C15 3.63 15 7.26 15 11 C10.05 11 5.1 11 0 11 C0.33 9.02 0.66 7.04 1 5 C1.33 5 1.66 5 2 5 C2 6.65 2 8.3 2 10 C7.445 9.505 7.445 9.505 13 9 C13.33 6.36 13.66 3.72 14 1 C9.38 1 4.76 1 0 1 C0 0.67 0 0.34 0 0 Z " fill="#257EA9" transform="translate(235,118)"/>
<path d="M0 0 C2.31 0 4.62 0 7 0 C7 2.64 7 5.28 7 8 C5.68 8 4.36 8 3 8 C2.67 8.99 2.34 9.98 2 11 C-0.5 9.625 -0.5 9.625 -3 8 C-3 7.34 -3 6.68 -3 6 C-1.02 5.67 0.96 5.34 3 5 C3.33 4.01 3.66 3.02 4 2 C2.68 1.67 1.36 1.34 0 1 C0 0.67 0 0.34 0 0 Z " fill="#144C6A" transform="translate(191,64)"/>
<path d="M0 0 C0.99 0.495 0.99 0.495 2 1 C2 11.23 2 21.46 2 32 C3.32 31.67 4.64 31.34 6 31 C5.67 32.98 5.34 34.96 5 37 C4.34 36.67 3.68 36.34 3 36 C3 35.34 3 34.68 3 34 C2.01 34 1.02 34 0 34 C0 22.78 0 11.56 0 0 Z " fill="#1C405C" transform="translate(210,46)"/>
<path d="M0 0 C4.62 0 9.24 0 14 0 C13.01 0.66 12.02 1.32 11 2 C11.99 2.66 12.98 3.32 14 4 C8.72 4 3.44 4 -2 4 C-1.34 2.68 -0.68 1.36 0 0 Z " fill="#013B6D" transform="translate(143,129)"/>
<path d="M0 0 C1.32 0 2.64 0 4 0 C4.33 1.98 4.66 3.96 5 6 C6.32 5.67 7.64 5.34 9 5 C6.3765992 7.91488977 3.28183606 9.88503898 0 12 C0 8.04 0 4.08 0 0 Z " fill="#25466F" transform="translate(217,64)"/>
<path d="M0 0 C0.99 0 1.98 0 3 0 C3 0.66 3 1.32 3 2 C5.31 2.33 7.62 2.66 10 3 C9.95117188 6.02734375 9.95117188 6.02734375 9.90234375 9.0546875 C9.87350758 11.08185404 9.87350758 11.08185404 11 13 C10.34 13 9.68 13 9 13 C8.67 13.66 8.34 14.32 8 15 C6.94595055 11.01803543 7.15901344 8.01804691 8 4 C4.20696275 5.00193437 1.28463659 5.81024227 -2 8 C-1.33333333 5.33333333 -0.66666667 2.66666667 0 0 Z " fill="#1E3F5C" transform="translate(232,57)"/>
<path d="M0 0 C-9.41002278 4.59225513 -9.41002278 4.59225513 -14 4 C-14 3.34 -14 2.68 -14 2 C-19.28 2 -24.56 2 -30 2 C-30 1.67 -30 1.34 -30 1 C-29.2886792 0.97494385 -28.5773584 0.9498877 -27.84448242 0.92407227 C-24.62530483 0.80811561 -21.40642015 0.68538755 -18.1875 0.5625 C-17.06794922 0.52318359 -15.94839844 0.48386719 -14.79492188 0.44335938 C-13.72177734 0.40146484 -12.64863281 0.35957031 -11.54296875 0.31640625 C-10.0583313 0.26141968 -10.0583313 0.26141968 -8.54370117 0.20532227 C-1.16968011 -0.38989337 -1.16968011 -0.38989337 0 0 Z " fill="#36B0D6" transform="translate(278,135)"/>
<path d="M0 0 C1.65 0.33 3.3 0.66 5 1 C5 1.66 5 2.32 5 3 C5.66 3 6.32 3 7 3 C7 4.32 7 5.64 7 7 C5.68 7 4.36 7 3 7 C2.67 8.32 2.34 9.64 2 11 C1.87625 10.071875 1.87625 10.071875 1.75 9.125 C1.18741541 6.81562433 1.18741541 6.81562433 -1.0625 5.75 C-1.701875 5.5025 -2.34125 5.255 -3 5 C-2.01 5 -1.02 5 0 5 C0 3.35 0 1.7 0 0 Z " fill="#A97E43" transform="translate(242,52)"/>
<path d="M0 0 C2.31 0.33 4.62 0.66 7 1 C7 1.66 7 2.32 7 3 C7.66 3 8.32 3 9 3 C9 3.99 9 4.98 9 6 C3.06 6 -2.88 6 -9 6 C-9 5.67 -9 5.34 -9 5 C-3.555 4.505 -3.555 4.505 2 4 C1.34 3.67 0.68 3.34 0 3 C0 2.01 0 1.02 0 0 Z " fill="#1F496D" transform="translate(209,188)"/>
<path d="M0 0 C1.98 0.99 3.96 1.98 6 3 C6 3.66 6 4.32 6 5 C5.01 5 4.02 5 3 5 C2.34 6.98 1.68 8.96 1 11 C1.66 11.33 2.32 11.66 3 12 C2.67 12.66 2.34 13.32 2 14 C-0.31 13.34 -2.62 12.68 -5 12 C-5 11.34 -5 10.68 -5 10 C-3.35 9.34 -1.7 8.68 0 8 C0 5.36 0 2.72 0 0 Z " fill="#1C2631" transform="translate(240,47)"/>
<path d="M0 0 C0.33 0 0.66 0 1 0 C1 2.97 1 5.94 1 9 C1.66 9 2.32 9 3 9 C3 8.34 3 7.68 3 7 C3.66 7 4.32 7 5 7 C5 7.99 5 8.98 5 10 C6.32 10.33 7.64 10.66 9 11 C7.7934375 11.3403125 7.7934375 11.3403125 6.5625 11.6875 C5.716875 12.120625 4.87125 12.55375 4 13 C3.10613836 15.54775306 3.10613836 15.54775306 3 18 C1.51171875 16.98046875 1.51171875 16.98046875 0 15 C-0.2172101 12.35003674 -0.28351554 9.94923442 -0.1875 7.3125 C-0.17396484 6.61060547 -0.16042969 5.90871094 -0.14648438 5.18554688 C-0.11120182 3.45670171 -0.05739583 1.72825235 0 0 Z " fill="#234064" transform="translate(199,33)"/>
<path d="M0 0 C1.62566606 0.47690204 3.25051311 0.95659666 4.875 1.4375 C5.77992188 1.70433594 6.68484375 1.97117188 7.6171875 2.24609375 C10 3 10 3 12 4 C11.67 5.32 11.34 6.64 11 8 C6.19827866 6.89191046 3.08838665 5.95313492 0 2 C0 1.34 0 0.68 0 0 Z " fill="#0E3055" transform="translate(158,180)"/>
<path d="M0 0 C0.66 0 1.32 0 2 0 C0.56590028 3.35861695 -1.19369321 5.35874939 -3.9375 7.75 C-4.62714844 8.36359375 -5.31679688 8.9771875 -6.02734375 9.609375 C-8 11 -8 11 -11 11 C-11 9 -11 9 -9.3125 6.9375 C-7 5 -7 5 -4.375 4.5 C-3.59125 4.335 -2.8075 4.17 -2 4 C-0.63979849 2.03241727 -0.63979849 2.03241727 0 0 Z " fill="#1778A7" transform="translate(268,163)"/>
<path d="M0 0 C0 3 0 3 -2.25 5.375 C-3.1575 6.24125 -4.065 7.1075 -5 8 C-5.70125 8.9075 -6.4025 9.815 -7.125 10.75 C-9 13 -9 13 -12 14 C-11.67 12.35 -11.34 10.7 -11 9 C-10.34 9 -9.68 9 -9 9 C-9 8.34 -9 7.68 -9 7 C-8.34 7 -7.68 7 -7 7 C-7 6.34 -7 5.68 -7 5 C-5.46875 3.7109375 -5.46875 3.7109375 -3.5 2.375 C-2.8503125 1.92898437 -2.200625 1.48296875 -1.53125 1.0234375 C-0.77328125 0.51683594 -0.77328125 0.51683594 0 0 Z " fill="#1775A2" transform="translate(284,148)"/>
<path d="M0 0 C1.09658936 3.28976808 0.79953138 4.71303767 0 8 C-4.455 9.485 -4.455 9.485 -9 11 C-8.67 10.34 -8.34 9.68 -8 9 C-7.34 9 -6.68 9 -6 9 C-5.7525 8.443125 -5.505 7.88625 -5.25 7.3125 C-3.78393985 4.60028873 -1.97010529 2.36412635 0 0 Z " fill="#033968" transform="translate(281,152)"/>
<path d="M0 0 C1.53202706 0.25195908 3.05257128 0.57596777 4.5625 0.9375 C5.80193359 1.22947266 5.80193359 1.22947266 7.06640625 1.52734375 C7.70449219 1.68332031 8.34257812 1.83929688 9 2 C9 2.33 9 2.66 9 3 C5.58340509 3.05816623 2.16693795 3.09365195 -1.25 3.125 C-2.70212891 3.15013672 -2.70212891 3.15013672 -4.18359375 3.17578125 C-5.58544922 3.18544922 -5.58544922 3.18544922 -7.015625 3.1953125 C-7.87446289 3.20578613 -8.73330078 3.21625977 -9.61816406 3.22705078 C-12.17903596 2.98293323 -13.79511029 2.28990512 -16 1 C-14.92878906 1.01160156 -13.85757813 1.02320313 -12.75390625 1.03515625 C-11.35677257 1.04453299 -9.95963701 1.05363331 -8.5625 1.0625 C-7.85544922 1.07087891 -7.14839844 1.07925781 -6.41992188 1.08789062 C-4.61306441 1.09653588 -2.80612397 1.05220011 -1 1 C-0.67 0.67 -0.34 0.34 0 0 Z " fill="#A2B5CD" transform="translate(204,190)"/>
<path d="M0 0 C0 3.3 0 6.6 0 10 C-0.33 10 -0.66 10 -1 10 C-1 7.69 -1 5.38 -1 3 C-6.1693489 3.40556131 -6.1693489 3.40556131 -11 5 C-11 3.68 -11 2.36 -11 1 C-9.35422741 0.83273455 -7.70838013 0.66620388 -6.0625 0.5 C-4.68771484 0.36078125 -4.68771484 0.36078125 -3.28515625 0.21875 C-1 0 -1 0 0 0 Z " fill="#148EB6" transform="translate(158,119)"/>
<path d="M0 0 C0.66 0 1.32 0 2 0 C2.33 0.99 2.66 1.98 3 3 C5.31 3.33 7.62 3.66 10 4 C10 4.66 10 5.32 10 6 C6.37 6 2.74 6 -1 6 C-1 1 -1 1 0 0 Z " fill="#1D4B70" transform="translate(200,77)"/>
<path d="M0 0 C4.62 0 9.24 0 14 0 C10 2 10 2 6 2 C5.67 2.99 5.34 3.98 5 5 C4.01 4.67 3.02 4.34 2 4 C2 3.34 2 2.68 2 2 C1.34 2 0.68 2 0 2 C0 1.34 0 0.68 0 0 Z " fill="#B4C4D7" transform="translate(153,171)"/>
<path d="M0 0 C0.99 0 1.98 0 3 0 C3 3.63 3 7.26 3 11 C2.01 11 1.02 11 0 11 C0 7.37 0 3.74 0 0 Z " fill="#015A8A" transform="translate(232,118)"/>
<path d="M0 0 C5.53846154 0.61538462 5.53846154 0.61538462 7.875 2.5625 C8.431875 3.2740625 8.431875 3.2740625 9 4 C7.4221875 3.87625 7.4221875 3.87625 5.8125 3.75 C1.46236331 4.03525487 0.0684847 5.02449969 -3 8 C-2.37240135 5.07120629 -1.41377341 2.63904371 0 0 Z " fill="#032D57" transform="translate(276,91)"/>
<path d="M0 0 C0.99 0.33 1.98 0.66 3 1 C3 1.66 3 2.32 3 3 C3.66 3 4.32 3 5 3 C4.67 3.99 4.34 4.98 4 6 C-0.455 6.495 -0.455 6.495 -5 7 C-3.68 6.67 -2.36 6.34 -1 6 C-0.67 4.02 -0.34 2.04 0 0 Z " fill="#184468" transform="translate(273,122)"/>
<path d="M0 0 C4.62 0 9.24 0 14 0 C13.67 0.99 13.34 1.98 13 3 C8.71 3 4.42 3 0 3 C0 2.01 0 1.02 0 0 Z " fill="#3DA0CB" transform="translate(235,119)"/>
<path d="M0 0 C4.95 0 9.9 0 15 0 C15 0.33 15 0.66 15 1 C8.565 1.495 8.565 1.495 2 2 C1.67 5.3 1.34 8.6 1 12 C0.67 12 0.34 12 0 12 C0 8.04 0 4.08 0 0 Z " fill="#42A8CF" transform="translate(214,100)"/>
<path d="M0 0 C-0.33 3.3 -0.66 6.6 -1 10 C-1.99 9.67 -2.98 9.34 -4 9 C-3.67 7.35 -3.34 5.7 -3 4 C-3.99 4 -4.98 4 -6 4 C-6 3.01 -6 2.02 -6 1 C-3 0 -3 0 0 0 Z " fill="#583C2A" transform="translate(212,21)"/>
<path d="M0 0 C1.32 0.66 2.64 1.32 4 2 C4 2.66 4 3.32 4 4 C6.475 4.99 6.475 4.99 9 6 C6.50935112 6.68707555 4.62113708 7 2 7 C1.67 6.34 1.34 5.68 1 5 C0.34 5 -0.32 5 -1 5 C-0.67 3.35 -0.34 1.7 0 0 Z " fill="#203F60" transform="translate(156,175)"/>
<path d="M0 0 C0.6875 1.6875 0.6875 1.6875 1 4 C-1.1102922 8.5929889 -4.66389666 12.25363152 -8 16 C-8 12.41820734 -7.15497104 11.4423393 -5.125 8.5625 C-3.17497 5.77876152 -1.44506832 3.0795388 0 0 Z " fill="#034571" transform="translate(294,132)"/>
<path d="M0 0 C0 3.19610552 -0.54671542 4.41717626 -2 7.1875 C-2.37125 7.90292969 -2.7425 8.61835938 -3.125 9.35546875 C-3.558125 10.16951172 -3.558125 10.16951172 -4 11 C-5.0390625 9.12890625 -5.0390625 9.12890625 -6 7 C-4.9476188 3.52714205 -2.95883421 1.97255614 0 0 Z " fill="#2187B3" transform="translate(294,130)"/>
<path d="M0 0 C0.78375 0.185625 1.5675 0.37125 2.375 0.5625 C4.97089775 1.25962266 4.97089775 1.25962266 7 0 C7 1.98 7 3.96 7 6 C5.68 6.33 4.36 6.66 3 7 C3 6.34 3 5.68 3 5 C2.34 4.67 1.68 4.34 1 4 C0.375 1.9375 0.375 1.9375 0 0 Z " fill="#C49744" transform="translate(162,53)"/>
<path d="M0 0 C0.66 0 1.32 0 2 0 C1.01 3.63 0.02 7.26 -1 11 C-1.33 11 -1.66 11 -2 11 C-2 9.02 -2 7.04 -2 5 C-3.98 5 -5.96 5 -8 5 C-7.34 3.68 -6.68 2.36 -6 1 C-5.67 1.66 -5.34 2.32 -5 3 C-3.68 3 -2.36 3 -1 3 C-0.67 2.01 -0.34 1.02 0 0 Z " fill="#0D3150" transform="translate(254,45)"/>
<path d="M0 0 C0.66 0.66 1.32 1.32 2 2 C-2.33455057 4.68742135 -5.77636459 6.75704021 -11 7 C-11.66 6.34 -12.32 5.68 -13 5 C-12.22914063 4.80664062 -11.45828125 4.61328125 -10.6640625 4.4140625 C-9.66117188 4.15367187 -8.65828125 3.89328125 -7.625 3.625 C-6.62726563 3.36976563 -5.62953125 3.11453125 -4.6015625 2.8515625 C-1.87458985 2.17595681 -1.87458985 2.17595681 0 0 Z " fill="#1474A2" transform="translate(243,181)"/>
<path d="M0 0 C1.98 0 3.96 0 6 0 C6 2.31 6 4.62 6 7 C4.68 7 3.36 7 2 7 C1.34 4.69 0.68 2.38 0 0 Z " fill="#115378" transform="translate(189,170)"/>
<path d="M0 0 C4.62272814 1.49558852 7.52369849 3.68171219 11 7 C11.875 9.3125 11.875 9.3125 12 11 C9.5 9.625 9.5 9.625 7 8 C7 7.34 7 6.68 7 6 C6.401875 5.7525 5.80375 5.505 5.1875 5.25 C2.71352479 3.83629988 1.56629745 2.34944617 0 0 Z " fill="#301A27" transform="translate(177,63)"/>
<path d="M0 0 C2.31 0.33 4.62 0.66 7 1 C7.66 2.65 8.32 4.3 9 6 C5.51329166 4.8905928 2.22515763 3.73662334 -1 2 C-0.67 1.34 -0.34 0.68 0 0 Z " fill="#3796BE" transform="translate(277,96)"/>
<path d="M0 0 C2 3 2 3 2 6 C2.66 6.33 3.32 6.66 4 7 C1.36 6.67 -1.28 6.34 -4 6 C-4.33 6.66 -4.66 7.32 -5 8 C-5.99 6.35 -6.98 4.7 -8 3 C-5.69 3.33 -3.38 3.66 -1 4 C-0.67 2.68 -0.34 1.36 0 0 Z " fill="#A36F3F" transform="translate(204,19)"/>
<path d="M0 0 C0.99 0.66 1.98 1.32 3 2 C2.64950425 5.24208567 2.43778819 6.61527704 -0.0625 8.8125 C-0.701875 9.204375 -1.34125 9.59625 -2 10 C-4 9 -4 9 -5 7 C-3.35 6.34 -1.7 5.68 0 5 C0 3.35 0 1.7 0 0 Z " fill="#023E69" transform="translate(279,122)"/>
<path d="M0 0 C3.63 0 7.26 0 11 0 C11 0.66 11 1.32 11 2 C10.28972656 2.04898438 9.57945312 2.09796875 8.84765625 2.1484375 C7.46900391 2.26058594 7.46900391 2.26058594 6.0625 2.375 C5.14597656 2.44460937 4.22945312 2.51421875 3.28515625 2.5859375 C2.53105469 2.72257812 1.77695313 2.85921875 1 3 C0.67 3.66 0.34 4.32 0 5 C0 3.35 0 1.7 0 0 Z " fill="#35A8D3" transform="translate(183,117)"/>
<path d="M0 0 C0.66 0 1.32 0 2 0 C2.0825 1.27875 2.165 2.5575 2.25 3.875 C2.45869931 6.05333418 2.45869931 6.05333418 3 8 C4.92064793 9.5899433 4.92064793 9.5899433 7 10 C6.01 10.495 6.01 10.495 5 11 C4.01 10.67 3.02 10.34 2 10 C2 9.34 2 8.68 2 8 C1.34 8 0.68 8 0 8 C0 5.36 0 2.72 0 0 Z " fill="#234159" transform="translate(170,61)"/>
<path d="M0 0 C-0.33 0.66 -0.66 1.32 -1 2 C0.32 2.33 1.64 2.66 3 3 C-1.95 3 -6.9 3 -12 3 C-3 -1.5 -3 -1.5 0 0 Z " fill="#062749" transform="translate(196,30)"/>
<path d="M0 0 C4.62 0 9.24 0 14 0 C14 0.33 14 0.66 14 1 C10.37 1 6.74 1 3 1 C3 1.66 3 2.32 3 3 C2.34 3 1.68 3 1 3 C1 4.98 1 6.96 1 9 C0.67 9 0.34 9 0 9 C0 6.03 0 3.06 0 0 Z " fill="#3EA9D1" transform="translate(143,119)"/>
<path d="M0 0 C0.99 0.33 1.98 0.66 3 1 C2.34 1.66 1.68 2.32 1 3 C1.66 3.66 2.32 4.32 3 5 C1.02 5.66 -0.96 6.32 -3 7 C-2.67 6.01 -2.34 5.02 -2 4 C-2.99 3.67 -3.98 3.34 -5 3 C-2.6875 1.4375 -2.6875 1.4375 0 0 Z " fill="#053C6A" transform="translate(245,182)"/>
<path d="M0 0 C0.99 0 1.98 0 3 0 C3 0.66 3 1.32 3 2 C3.99 2.33 4.98 2.66 6 3 C5.01 4.485 5.01 4.485 4 6 C1.525 5.01 1.525 5.01 -1 4 C-0.67 2.68 -0.34 1.36 0 0 Z " fill="#02527B" transform="translate(160,148)"/>
<path d="M0 0 C0 0.66 0 1.32 0 2 C-3.63 2.66 -7.26 3.32 -11 4 C-10.67 3.01 -10.34 2.02 -10 1 C-6.78548731 -0.60725635 -3.56387464 -0.05748185 0 0 Z " fill="#3F99C6" transform="translate(314,107)"/>
<path d="M0 0 C0 3 0 3 -2.25 5.5 C-4.43541108 7.48673735 -6.58854412 9.30304957 -9 11 C-9.66 10.67 -10.32 10.34 -11 10 C-5.555 5.05 -5.555 5.05 0 0 Z " fill="#451A2C" transform="translate(235,67)"/>
<path d="M0 0 C5.75 1.75 5.75 1.75 8 4 C4.42355152 5.2380014 1.66305234 4.74926071 -2 4 C-1.34 2.68 -0.68 1.36 0 0 Z " fill="#25425E" transform="translate(170,185)"/>
<path d="M0 0 C2.64 0 5.28 0 8 0 C5 2 5 2 3 2 C3 2.66 3 3.32 3 4 C4.98 4 6.96 4 9 4 C8.67 4.66 8.34 5.32 8 6 C5.69 5.34 3.38 4.68 1 4 C0.67 2.68 0.34 1.36 0 0 Z " fill="#EBECEB" transform="translate(175,182)"/>
<path d="M0 0 C5.28 0 10.56 0 16 0 C16 0.33 16 0.66 16 1 C11.38 1.33 6.76 1.66 2 2 C2 2.66 2 3.32 2 4 C1.34 4 0.68 4 0 4 C0 2.68 0 1.36 0 0 Z " fill="#3BAAD2" transform="translate(162,118)"/>
<path d="M0 0 C0.99 0 1.98 0 3 0 C3.3648363 4.25642352 2.47460354 6.53555505 0 10 C-0.33 10 -0.66 10 -1 10 C-0.67 6.7 -0.34 3.4 0 0 Z " fill="#012F5A" transform="translate(322,111)"/>
<path d="M0 0 C1.875 0.3125 1.875 0.3125 4 1 C4.66 1.99 5.32 2.98 6 4 C5.01 4.99 4.02 5.98 3 7 C2.67 6.01 2.34 5.02 2 4 C1.34 4 0.68 4 0 4 C0 2.68 0 1.36 0 0 Z " fill="#862D40" transform="translate(174,63)"/>
<path d="M0 0 C0.66 0 1.32 0 2 0 C3.0625 1.8125 3.0625 1.8125 4 4 C3.67 4.99 3.34 5.98 3 7 C1.68 7 0.36 7 -1 7 C-0.67 4.69 -0.34 2.38 0 0 Z " fill="#0B253E" transform="translate(203,14)"/>
<path d="M0 0 C0.33 0.66 0.66 1.32 1 2 C1.99 2.33 2.98 2.66 4 3 C5.1875 5.5625 5.1875 5.5625 6 8 C4.35 7.67 2.7 7.34 1 7 C0.67 4.69 0.34 2.38 0 0 Z " fill="#0A3D62" transform="translate(192,175)"/>
<path d="M0 0 C2.31 0 4.62 0 7 0 C6.67 0.99 6.34 1.98 6 3 C2.4375 4.1875 2.4375 4.1875 -1 5 C-0.67 3.35 -0.34 1.7 0 0 Z " fill="#012A59" transform="translate(295,131)"/>
<path d="M0 0 C5.28 0 10.56 0 16 0 C16 0.33 16 0.66 16 1 C15.18015625 1.04898438 14.3603125 1.09796875 13.515625 1.1484375 C12.43796875 1.22320312 11.3603125 1.29796875 10.25 1.375 C8.64898437 1.47941406 8.64898437 1.47941406 7.015625 1.5859375 C4.19793568 1.9728223 2.4169634 2.55686166 0 4 C0 2.68 0 1.36 0 0 Z " fill="#43ACD4" transform="translate(184,100)"/>
<path d="M0 0 C4.62 0 9.24 0 14 0 C14 0.33 14 0.66 14 1 C8.06 1.495 8.06 1.495 2 2 C2 2.66 2 3.32 2 4 C1.34 4 0.68 4 0 4 C0 2.68 0 1.36 0 0 Z " fill="#42ADD1" transform="translate(162,100)"/>
<path d="M0 0 C-4.455 2.97 -4.455 2.97 -9 6 C-9 4.02 -9 2.04 -9 0 C-2.25 -1.125 -2.25 -1.125 0 0 Z " fill="#133F5C" transform="translate(226,70)"/>
<path d="M0 0 C0.99 0.495 0.99 0.495 2 1 C2.33 1.99 2.66 2.98 3 4 C4.32 3.67 5.64 3.34 7 3 C6.67 3.99 6.34 4.98 6 6 C4.02 6.33 2.04 6.66 0 7 C0 4.69 0 2.38 0 0 Z " fill="#654F2F" transform="translate(162,56)"/>
<path d="M0 0 C0.33 0 0.66 0 1 0 C1.3125 2.6875 1.3125 2.6875 1 6 C-1.3125 8.875 -1.3125 8.875 -4 11 C-4.99 11 -5.98 11 -7 11 C-5.38405168 8.95880212 -3.7143618 6.95927063 -2 5 C-1.34 5 -0.68 5 0 5 C0 3.35 0 1.7 0 0 Z " fill="#132541" transform="translate(239,61)"/>
<path d="M0 0 C1.32 0 2.64 0 4 0 C4.33 0.99 4.66 1.98 5 3 C2.69 3.66 0.38 4.32 -2 5 C-1.34 3.35 -0.68 1.7 0 0 Z " fill="#1C4161" transform="translate(245,63)"/>
<path d="M0 0 C2.35171131 0.59861742 4.6859378 1.26924352 7 2 C7.33 2.66 7.66 3.32 8 4 C7.34 5.32 6.68 6.64 6 8 C4.02 5.36 2.04 2.72 0 0 Z " fill="#083053" transform="translate(187,15)"/>
<path d="M0 0 C3.96 0 7.92 0 12 0 C11.01 1.485 11.01 1.485 10 3 C3.375 2.25 3.375 2.25 0 0 Z " fill="#AEB9CC" transform="translate(178,188)"/>
<path d="M0 0 C0.66 0 1.32 0 2 0 C1.34 1.32 0.68 2.64 0 4 C-3.3 4 -6.6 4 -10 4 C-10 3.67 -10 3.34 -10 3 C-9.04287109 2.80083984 -9.04287109 2.80083984 -8.06640625 2.59765625 C-7.24011719 2.42105469 -6.41382813 2.24445313 -5.5625 2.0625 C-4.73878906 1.88847656 -3.91507812 1.71445313 -3.06640625 1.53515625 C-1.02338796 1.19247006 -1.02338796 1.19247006 0 0 Z " fill="#2481A9" transform="translate(278,130)"/>
<path d="M0 0 C0 1.32 0 2.64 0 4 C-0.66 4 -1.32 4 -2 4 C-2 4.66 -2 5.32 -2 6 C-2.99 6 -3.98 6 -5 6 C-5 4.68 -5 3.36 -5 2 C-2 0 -2 0 0 0 Z " fill="#A13044" transform="translate(222,76)"/>
<path d="M0 0 C0.33 2.31 0.66 4.62 1 7 C-1 4 -1 4 -1 2 C-1.66 2 -2.32 2 -3 2 C-3.33 2.66 -3.66 3.32 -4 4 C-4.99 3.34 -5.98 2.68 -7 2 C-4 0 -4 0 0 0 Z " fill="#203F62" transform="translate(167,63)"/>
<path d="M0 0 C0.33 1.32 0.66 2.64 1 4 C1.66 4 2.32 4 3 4 C2.67 5.32 2.34 6.64 2 8 C1.01 8 0.02 8 -1 8 C-1.04241723 5.66705225 -1.04092937 3.33297433 -1 1 C-0.67 0.67 -0.34 0.34 0 0 Z " fill="#1E2636" transform="translate(170,49)"/>
<path d="M0 0 C0.33 0 0.66 0 1 0 C1 2.97 1 5.94 1 9 C1.66 9 2.32 9 3 9 C2.34 10.98 1.68 12.96 1 15 C0.67 15 0.34 15 0 15 C0 10.05 0 5.1 0 0 Z " fill="#0E314F" transform="translate(199,33)"/>
<path d="M0 0 C0.66 0 1.32 0 2 0 C2 0.99 2 1.98 2 3 C2.66 3 3.32 3 4 3 C3.67 3.99 3.34 4.98 3 6 C-0.465 4.02 -0.465 4.02 -4 2 C-3.34 1.67 -2.68 1.34 -2 1 C-1.34 1.33 -0.68 1.66 0 2 C0 1.34 0 0.68 0 0 Z " fill="#D0DCE8" transform="translate(169,180)"/>
<path d="M0 0 C0.99 0 1.98 0 3 0 C1.52307692 4.67692308 1.52307692 4.67692308 -1.125 6.3125 C-2.053125 6.6528125 -2.053125 6.6528125 -3 7 C-1.125 2.25 -1.125 2.25 0 0 Z " fill="#258DB9" transform="translate(283,144)"/>
<path d="M0 0 C3.875 0.875 3.875 0.875 5 2 C4.71269945 4.33944736 4.38063221 6.6739143 4 9 C3.34 7.68 2.68 6.36 2 5 C2.66 5 3.32 5 4 5 C4 4.34 4 3.68 4 3 C2.68 2.67 1.36 2.34 0 2 C0 1.34 0 0.68 0 0 Z " fill="#083763" transform="translate(320,104)"/>
<path d="M0 0 C2.475 0.495 2.475 0.495 5 1 C5.33 2.32 5.66 3.64 6 5 C4.125 4.75 4.125 4.75 2 4 C0.75 1.9375 0.75 1.9375 0 0 Z " fill="#9F303D" transform="translate(189,77)"/>
<path d="M0 0 C2.475 0.99 2.475 0.99 5 2 C5.33 1.34 5.66 0.68 6 0 C6.99 0.99 7.98 1.98 9 3 C8.01 3.495 8.01 3.495 7 4 C6.67 4.66 6.34 5.32 6 6 C3.97945196 4.35830472 1.97956942 2.69088222 0 1 C0 0.67 0 0.34 0 0 Z " fill="#822731" transform="translate(183,74)"/>
<path d="M0 0 C0 3.3 0 6.6 0 10 C-2.76223278 7.23776722 -2.57856291 4.79293383 -3 1 C-1 0 -1 0 0 0 Z " fill="#012844" transform="translate(170,62)"/>
<path d="M0 0 C0.99 0.33 1.98 0.66 3 1 C4.1875 3.5625 4.1875 3.5625 5 6 C3.68 6.33 2.36 6.66 1 7 C0.67 4.69 0.34 2.38 0 0 Z " fill="#31271B" transform="translate(195,23)"/>
<path d="M0 0 C1.875 0.25 1.875 0.25 4 1 C4.69937532 2.31647119 5.36729133 3.65022151 6 5 C6.99 5.33 7.98 5.66 9 6 C8.01 6.495 8.01 6.495 7 7 C5.83040013 6.02433888 4.66438823 5.044375 3.5 4.0625 C2.8503125 3.51722656 2.200625 2.97195312 1.53125 2.41015625 C1.0259375 1.94480469 0.520625 1.47945312 0 1 C0 0.67 0 0.34 0 0 Z " fill="#204767" transform="translate(194,182)"/>
<path d="M0 0 C1.32 0.33 2.64 0.66 4 1 C4 2.98 4 4.96 4 7 C2.68 7.33 1.36 7.66 0 8 C0.185625 7.05125 0.37125 6.1025 0.5625 5.125 C1.28686632 2.10131207 1.28686632 2.10131207 0 0 Z " fill="#2489B3" transform="translate(280,122)"/>
<path d="M0 0 C0.99 0.33 1.98 0.66 3 1 C3 2.98 3 4.96 3 7 C2.01 7 1.02 7 0 7 C0 4.69 0 2.38 0 0 Z " fill="#AC3239" transform="translate(205,69)"/>
<path d="M0 0 C2.4375 0.8125 2.4375 0.8125 5 2 C5.33 2.99 5.66 3.98 6 5 C1.25 4.125 1.25 4.125 -1 3 C-0.67 2.01 -0.34 1.02 0 0 Z " fill="#A8353C" transform="translate(179,67)"/>
<path d="M0 0 C-0.66 1.65 -1.32 3.3 -2 5 C-2.33 4.34 -2.66 3.68 -3 3 C-5.32156597 2.59270772 -7.6568787 2.25561323 -10 2 C-10 1.67 -10 1.34 -10 1 C-2.25 0 -2.25 0 0 0 Z " fill="#204363" transform="translate(183,59)"/>
<path d="M0 0 C1.65 0 3.3 0 5 0 C5.33 0.99 5.66 1.98 6 3 C5.01 3 4.02 3 3 3 C2.01 3.66 1.02 4.32 0 5 C-0.33 4.01 -0.66 3.02 -1 2 C-0.67 1.34 -0.34 0.68 0 0 Z " fill="#302924" transform="translate(161,52)"/>
<path d="M0 0 C1.98 0.99 3.96 1.98 6 3 C6 3.66 6 4.32 6 5 C4.02 5.33 2.04 5.66 0 6 C0 4.02 0 2.04 0 0 Z " fill="#132943" transform="translate(240,47)"/>
<path d="M0 0 C2.5625 2.25 2.5625 2.25 5 5 C4.67 6.32 4.34 7.64 4 9 C1.525 5.04 1.525 5.04 -1 1 C-0.67 0.67 -0.34 0.34 0 0 Z " fill="#2784B2" transform="translate(144,157)"/>
<path d="M0 0 C2.97 0 5.94 0 9 0 C6.64031256 2.09749995 5.45383006 2.96905704 2.25 3.1875 C1.13625 3.0946875 1.13625 3.0946875 0 3 C0 2.01 0 1.02 0 0 Z " fill="#1187B5" transform="translate(212,157)"/>
<path d="M0 0 C2.9375 0.375 2.9375 0.375 6 1 C6.33 1.66 6.66 2.32 7 3 C4.36 3 1.72 3 -1 3 C-0.67 2.01 -0.34 1.02 0 0 Z " fill="#082D4C" transform="translate(174,57)"/>
<path d="M0 0 C0.99 0 1.98 0 3 0 C3 2.31 3 4.62 3 7 C2.01 7.33 1.02 7.66 0 8 C-0.66 7.67 -1.32 7.34 -2 7 C-2 6.34 -2 5.68 -2 5 C-0.68 5 0.64 5 2 5 C2 3.68 2 2.36 2 1 C1.34 0.67 0.68 0.34 0 0 Z " fill="#694B29" transform="translate(247,54)"/>
<path d="M0 0 C0.33 1.32 0.66 2.64 1 4 C-1.61941217 5.74627478 -3.03824877 6.38722388 -6 7 C-5.67 6.34 -5.34 5.68 -5 5 C-4.34 5 -3.68 5 -3 5 C-2.5359375 4.0409375 -2.5359375 4.0409375 -2.0625 3.0625 C-1 1 -1 1 0 0 Z " fill="#054472" transform="translate(278,156)"/>
<path d="M0 0 C0.66 0 1.32 0 2 0 C2 1.98 2 3.96 2 6 C1.01 6 0.02 6 -1 6 C-1.042721 4.33388095 -1.04063832 2.66617115 -1 1 C-0.67 0.67 -0.34 0.34 0 0 Z " fill="#01618C" transform="translate(159,123)"/>
<path d="M0 0 C1.32 0.33 2.64 0.66 4 1 C3.34 2.65 2.68 4.3 2 6 C1.34 5.67 0.68 5.34 0 5 C0 3.35 0 1.7 0 0 Z " fill="#03658E" transform="translate(210,99)"/>
<path d="M0 0 C3.465 1.485 3.465 1.485 7 3 C7 3.66 7 4.32 7 5 C4.03 4.505 4.03 4.505 1 4 C0.67 2.68 0.34 1.36 0 0 Z " fill="#244566" transform="translate(188,82)"/>
<path d="M0 0 C0.99 0.33 1.98 0.66 3 1 C2.67 1.66 2.34 2.32 2 3 C2.66 3.33 3.32 3.66 4 4 C3.34 4.66 2.68 5.32 2 6 C1.01 5.01 0.02 4.02 -1 3 C-0.67 2.01 -0.34 1.02 0 0 Z " fill="#183F5D" transform="translate(253,56)"/>
<path d="M0 0 C1.76462683 3.08809695 2 4.23312136 2 8 C1.01 8 0.02 8 -1 8 C-0.67 5.36 -0.34 2.72 0 0 Z " fill="#154B6B" transform="translate(254,48)"/>
<path d="M0 0 C0.99 0 1.98 0 3 0 C3 1.65 3 3.3 3 5 C1.68 4.67 0.36 4.34 -1 4 C-0.67 2.68 -0.34 1.36 0 0 Z " fill="#A33740" transform="translate(205,47)"/>
<path d="M0 0 C0.99 0.66 1.98 1.32 3 2 C3 2.66 3 3.32 3 4 C3.66 4.33 4.32 4.66 5 5 C2.69 5 0.38 5 -2 5 C-2 4.34 -2 3.68 -2 3 C-1.34 2.67 -0.68 2.34 0 2 C0 1.34 0 0.68 0 0 Z " fill="#0B2740" transform="translate(211,30)"/>
</svg>
